ISO-10303-21;
HEADER;
FILE_DESCRIPTION(('STEP AP203'),
    '1');
FILE_NAME('ptfe3to1hub_v2',
    '2024-02-01T07:18:45',
    ('User'),
    (''),
    'C3D Converter',
    'C3D Toolkit',
    '');
/**/
FILE_SCHEMA(('CONFIG_CONTROL_DESIGN'));
ENDSEC;

DATA;
#1=PRODUCT_DEFINITION('','UNSPECIFIED',#47,#50);
#2=SHAPE_DEFINITION_REPRESENTATION(#40,#3);
#3=SHAPE_REPRESENTATION('NONE',(#4),#8);
#4=AXIS2_PLACEMENT_3D('',#5,#6,#7);
#5=CARTESIAN_POINT('',(0.,0.,0.));
#6=DIRECTION('',(0.,0.,1.));
#7=DIRECTION('',(1.,0.,0.));
#8=(GEOMETRIC_REPRESENTATION_CONTEXT(3)GLOBAL_UNCERTAINTY_ASSIGNED_CONTEXT((#10))
GLOBAL_UNIT_ASSIGNED_CONTEXT((#9,#11,#12))REPRESENTATION_CONTEXT('NONE','NONE'));
#9=(LENGTH_UNIT()NAMED_UNIT(*)SI_UNIT(.MILLI.,.METRE.));
#10=UNCERTAINTY_MEASURE_WITH_UNIT(LENGTH_MEASURE(1.E-5),#9,'NONE','NONE');
#11=(NAMED_UNIT(*)PLANE_ANGLE_UNIT()SI_UNIT($,.RADIAN.));
#12=(NAMED_UNIT(*)SI_UNIT($,.STERADIAN.)SOLID_ANGLE_UNIT());
#13=MANIFOLD_SOLID_BREP('',#28);
#14=DERIVED_UNIT((#18,#15));
#15=DERIVED_UNIT_ELEMENT(#16,-1.);
#16=VOLUME_UNIT(#17);
#17=DIMENSIONAL_EXPONENTS(3.,0.,0.,0.,0.,0.,0.);
#18=(NAMED_UNIT($)MASS_UNIT()SI_UNIT($,.GRAM.));
#19=(MEASURE_REPRESENTATION_ITEM()MEASURE_WITH_UNIT(NUMERIC_MEASURE(0.007856),#14)
REPRESENTATION_ITEM(''));
#20=SHAPE_ASPECT('','',#1,.F.);
#21=PROPERTY_DEFINITION('NONE','NONE',#20);
#22=PROPERTY_DEFINITION_REPRESENTATION(#21,#23);
#23=REPRESENTATION('NONE',(#13),$);
#24=MATERIAL_PROPERTY('NONE','NONE',#20);
#25=MATERIAL_PROPERTY_REPRESENTATION(#24,#26,$);
#26=REPRESENTATION('NONE',(#19),#27);
#27=GLOBAL_UNIT_ASSIGNED_CONTEXT('NONE','NONE',(#9,#14));
#28=CLOSED_SHELL('',(#72,#81,#90,#99,#108,#117,#126,#135,#144,#153,#162,#171,#180,
#189,#198,#207,#216,#225,#234,#243,#252,#261,#270,#279,#288,#297,#306,#315,#324,
#333,#342,#351,#360,#369,#378,#387,#396,#405));
#29=COLOUR_RGB('',0.564705882352941,0.564705882352941,0.564705882352941);
#30=FILL_AREA_STYLE_COLOUR('',#29);
#31=FILL_AREA_STYLE($,(#30));
#32=SURFACE_STYLE_FILL_AREA(#31);
#33=SURFACE_SIDE_STYLE('',(#32));
#34=SURFACE_STYLE_USAGE(.BOTH.,#33);
#35=PRESENTATION_STYLE_ASSIGNMENT((#34));
#36=MECHANICAL_DESIGN_GEOMETRIC_PRESENTATION_REPRESENTATION('NONE',(#37,#80,#89,
#98,#107,#116,#125,#134,#143,#152,#161,#170,#179,#188,#197,#206,#215,#224,#233,#242,
#251,#260,#269,#278,#287,#296,#305,#314,#323,#332,#341,#350,#359,#368,#377,#386,
#395,#404,#413),#8);
#37=STYLED_ITEM('',(#35),#13);
#38=ADVANCED_BREP_SHAPE_REPRESENTATION('NONE',(#13),#8);
#39=SHAPE_REPRESENTATION_RELATIONSHIP('','',#3,#38);
#40=PRODUCT_DEFINITION_SHAPE('NONE','NONE',#1);
#41=(MEASURE_REPRESENTATION_ITEM()MEASURE_WITH_UNIT(NUMERIC_MEASURE(0.007856),#14)
REPRESENTATION_ITEM(''));
#42=MATERIAL_PROPERTY('NONE','NONE',#40);
#43=MATERIAL_PROPERTY_REPRESENTATION(#42,#44,$);
#44=REPRESENTATION('NONE',(#41),#45);
#45=GLOBAL_UNIT_ASSIGNED_CONTEXT('NONE','NONE',(#9,#14));
#46=MECHANICAL_CONTEXT('NONE',#51,'mechanical');
#47=PRODUCT_DEFINITION_FORMATION_WITH_SPECIFIED_SOURCE('ANY','UNSPECIFIED',#48,.NOT_KNOWN.);
#48=PRODUCT('','\X2\0414043504420430043B044C\X0\','NONE',(#46));
#49=PRODUCT_RELATED_PRODUCT_CATEGORY('detail','',(#48));
#50=DESIGN_CONTEXT('detailed design',#51,'design');
#51=APPLICATION_CONTEXT('configuration controlled 3d designs of mechanical parts and assemblies');
#52=APPLICATION_PROTOCOL_DEFINITION('international standard','config_control_design',
1994,#51);
#53=CC_DESIGN_DATE_AND_TIME_ASSIGNMENT(#54,#58,(#1));
#54=DATE_AND_TIME(#55,#56);
#55=CALENDAR_DATE(0,1,1);
#56=LOCAL_TIME(0,0,0.,#57);
#57=COORDINATED_UNIVERSAL_TIME_OFFSET(0,0,.AHEAD.);
#58=DATE_TIME_ROLE('creation_date');
#59=CC_DESIGN_APPROVAL(#60,(#1));
#60=APPROVAL(#61,'UNSPECIFIED');
#61=APPROVAL_STATUS('not_yet_approved');
#62=APPROVAL_DATE_TIME(#63,#60);
#63=DATE_AND_TIME(#64,#65);
#64=CALENDAR_DATE(0,1,1);
#65=LOCAL_TIME(0,0,0.,#66);
#66=COORDINATED_UNIVERSAL_TIME_OFFSET(0,0,.AHEAD.);
#67=PERSON('UNSPECIFIED','User','UNSPECIFIED',('UNSPECIFIED'),('UNSPECIFIED'),('UNSPECIFIED'));
#68=ORGANIZATION('UNSPECIFIED','UNSPECIFIED','UNSPECIFIED');
#69=PERSON_AND_ORGANIZATION(#67,#68);
#70=PERSON_AND_ORGANIZATION_ROLE('creator');
#71=CC_DESIGN_PERSON_AND_ORGANIZATION_ASSIGNMENT(#69,#70,(#47,#1));
#72=ADVANCED_FACE('',(#414,#416),#418,.F.);
#73=COLOUR_RGB('',0.564705882352941,0.564705882352941,0.564705882352941);
#74=FILL_AREA_STYLE_COLOUR('',#73);
#75=FILL_AREA_STYLE($,(#74));
#76=SURFACE_STYLE_FILL_AREA(#75);
#77=SURFACE_SIDE_STYLE('',(#76));
#78=SURFACE_STYLE_USAGE(.BOTH.,#77);
#79=PRESENTATION_STYLE_ASSIGNMENT((#78));
#80=STYLED_ITEM('',(#79),#72);
#81=ADVANCED_FACE('',(#423,#425),#427,.T.);
#82=COLOUR_RGB('',0.564705882352941,0.564705882352941,0.564705882352941);
#83=FILL_AREA_STYLE_COLOUR('',#82);
#84=FILL_AREA_STYLE($,(#83));
#85=SURFACE_STYLE_FILL_AREA(#84);
#86=SURFACE_SIDE_STYLE('',(#85));
#87=SURFACE_STYLE_USAGE(.BOTH.,#86);
#88=PRESENTATION_STYLE_ASSIGNMENT((#87));
#89=STYLED_ITEM('',(#88),#81);
#90=ADVANCED_FACE('',(#432,#434),#436,.F.);
#91=COLOUR_RGB('',0.564705882352941,0.564705882352941,0.564705882352941);
#92=FILL_AREA_STYLE_COLOUR('',#91);
#93=FILL_AREA_STYLE($,(#92));
#94=SURFACE_STYLE_FILL_AREA(#93);
#95=SURFACE_SIDE_STYLE('',(#94));
#96=SURFACE_STYLE_USAGE(.BOTH.,#95);
#97=PRESENTATION_STYLE_ASSIGNMENT((#96));
#98=STYLED_ITEM('',(#97),#90);
#99=ADVANCED_FACE('',(#441,#443),#445,.T.);
#100=COLOUR_RGB('',0.564705882352941,0.564705882352941,0.564705882352941);
#101=FILL_AREA_STYLE_COLOUR('',#100);
#102=FILL_AREA_STYLE($,(#101));
#103=SURFACE_STYLE_FILL_AREA(#102);
#104=SURFACE_SIDE_STYLE('',(#103));
#105=SURFACE_STYLE_USAGE(.BOTH.,#104);
#106=PRESENTATION_STYLE_ASSIGNMENT((#105));
#107=STYLED_ITEM('',(#106),#99);
#108=ADVANCED_FACE('',(#450,#452),#454,.T.);
#109=COLOUR_RGB('',0.564705882352941,0.564705882352941,0.564705882352941);
#110=FILL_AREA_STYLE_COLOUR('',#109);
#111=FILL_AREA_STYLE($,(#110));
#112=SURFACE_STYLE_FILL_AREA(#111);
#113=SURFACE_SIDE_STYLE('',(#112));
#114=SURFACE_STYLE_USAGE(.BOTH.,#113);
#115=PRESENTATION_STYLE_ASSIGNMENT((#114));
#116=STYLED_ITEM('',(#115),#108);
#117=ADVANCED_FACE('',(#459),#461,.F.);
#118=COLOUR_RGB('',0.564705882352941,0.564705882352941,0.564705882352941);
#119=FILL_AREA_STYLE_COLOUR('',#118);
#120=FILL_AREA_STYLE($,(#119));
#121=SURFACE_STYLE_FILL_AREA(#120);
#122=SURFACE_SIDE_STYLE('',(#121));
#123=SURFACE_STYLE_USAGE(.BOTH.,#122);
#124=PRESENTATION_STYLE_ASSIGNMENT((#123));
#125=STYLED_ITEM('',(#124),#117);
#126=ADVANCED_FACE('',(#466),#468,.T.);
#127=COLOUR_RGB('',0.564705882352941,0.564705882352941,0.564705882352941);
#128=FILL_AREA_STYLE_COLOUR('',#127);
#129=FILL_AREA_STYLE($,(#128));
#130=SURFACE_STYLE_FILL_AREA(#129);
#131=SURFACE_SIDE_STYLE('',(#130));
#132=SURFACE_STYLE_USAGE(.BOTH.,#131);
#133=PRESENTATION_STYLE_ASSIGNMENT((#132));
#134=STYLED_ITEM('',(#133),#126);
#135=ADVANCED_FACE('',(#473),#475,.T.);
#136=COLOUR_RGB('',0.564705882352941,0.564705882352941,0.564705882352941);
#137=FILL_AREA_STYLE_COLOUR('',#136);
#138=FILL_AREA_STYLE($,(#137));
#139=SURFACE_STYLE_FILL_AREA(#138);
#140=SURFACE_SIDE_STYLE('',(#139));
#141=SURFACE_STYLE_USAGE(.BOTH.,#140);
#142=PRESENTATION_STYLE_ASSIGNMENT((#141));
#143=STYLED_ITEM('',(#142),#135);
#144=ADVANCED_FACE('',(#480),#482,.T.);
#145=COLOUR_RGB('',0.564705882352941,0.564705882352941,0.564705882352941);
#146=FILL_AREA_STYLE_COLOUR('',#145);
#147=FILL_AREA_STYLE($,(#146));
#148=SURFACE_STYLE_FILL_AREA(#147);
#149=SURFACE_SIDE_STYLE('',(#148));
#150=SURFACE_STYLE_USAGE(.BOTH.,#149);
#151=PRESENTATION_STYLE_ASSIGNMENT((#150));
#152=STYLED_ITEM('',(#151),#144);
#153=ADVANCED_FACE('',(#487,#489),#491,.F.);
#154=COLOUR_RGB('',0.564705882352941,0.564705882352941,0.564705882352941);
#155=FILL_AREA_STYLE_COLOUR('',#154);
#156=FILL_AREA_STYLE($,(#155));
#157=SURFACE_STYLE_FILL_AREA(#156);
#158=SURFACE_SIDE_STYLE('',(#157));
#159=SURFACE_STYLE_USAGE(.BOTH.,#158);
#160=PRESENTATION_STYLE_ASSIGNMENT((#159));
#161=STYLED_ITEM('',(#160),#153);
#162=ADVANCED_FACE('',(#496,#498),#500,.T.);
#163=COLOUR_RGB('',0.564705882352941,0.564705882352941,0.564705882352941);
#164=FILL_AREA_STYLE_COLOUR('',#163);
#165=FILL_AREA_STYLE($,(#164));
#166=SURFACE_STYLE_FILL_AREA(#165);
#167=SURFACE_SIDE_STYLE('',(#166));
#168=SURFACE_STYLE_USAGE(.BOTH.,#167);
#169=PRESENTATION_STYLE_ASSIGNMENT((#168));
#170=STYLED_ITEM('',(#169),#162);
#171=ADVANCED_FACE('',(#505,#507),#509,.T.);
#172=COLOUR_RGB('',0.564705882352941,0.564705882352941,0.564705882352941);
#173=FILL_AREA_STYLE_COLOUR('',#172);
#174=FILL_AREA_STYLE($,(#173));
#175=SURFACE_STYLE_FILL_AREA(#174);
#176=SURFACE_SIDE_STYLE('',(#175));
#177=SURFACE_STYLE_USAGE(.BOTH.,#176);
#178=PRESENTATION_STYLE_ASSIGNMENT((#177));
#179=STYLED_ITEM('',(#178),#171);
#180=ADVANCED_FACE('',(#514),#516,.T.);
#181=COLOUR_RGB('',0.564705882352941,0.564705882352941,0.564705882352941);
#182=FILL_AREA_STYLE_COLOUR('',#181);
#183=FILL_AREA_STYLE($,(#182));
#184=SURFACE_STYLE_FILL_AREA(#183);
#185=SURFACE_SIDE_STYLE('',(#184));
#186=SURFACE_STYLE_USAGE(.BOTH.,#185);
#187=PRESENTATION_STYLE_ASSIGNMENT((#186));
#188=STYLED_ITEM('',(#187),#180);
#189=ADVANCED_FACE('',(#521),#523,.T.);
#190=COLOUR_RGB('',0.564705882352941,0.564705882352941,0.564705882352941);
#191=FILL_AREA_STYLE_COLOUR('',#190);
#192=FILL_AREA_STYLE($,(#191));
#193=SURFACE_STYLE_FILL_AREA(#192);
#194=SURFACE_SIDE_STYLE('',(#193));
#195=SURFACE_STYLE_USAGE(.BOTH.,#194);
#196=PRESENTATION_STYLE_ASSIGNMENT((#195));
#197=STYLED_ITEM('',(#196),#189);
#198=ADVANCED_FACE('',(#528,#530),#532,.T.);
#199=COLOUR_RGB('',0.564705882352941,0.564705882352941,0.564705882352941);
#200=FILL_AREA_STYLE_COLOUR('',#199);
#201=FILL_AREA_STYLE($,(#200));
#202=SURFACE_STYLE_FILL_AREA(#201);
#203=SURFACE_SIDE_STYLE('',(#202));
#204=SURFACE_STYLE_USAGE(.BOTH.,#203);
#205=PRESENTATION_STYLE_ASSIGNMENT((#204));
#206=STYLED_ITEM('',(#205),#198);
#207=ADVANCED_FACE('',(#537,#539),#541,.F.);
#208=COLOUR_RGB('',0.564705882352941,0.564705882352941,0.564705882352941);
#209=FILL_AREA_STYLE_COLOUR('',#208);
#210=FILL_AREA_STYLE($,(#209));
#211=SURFACE_STYLE_FILL_AREA(#210);
#212=SURFACE_SIDE_STYLE('',(#211));
#213=SURFACE_STYLE_USAGE(.BOTH.,#212);
#214=PRESENTATION_STYLE_ASSIGNMENT((#213));
#215=STYLED_ITEM('',(#214),#207);
#216=ADVANCED_FACE('',(#546,#548),#550,.F.);
#217=COLOUR_RGB('',0.564705882352941,0.564705882352941,0.564705882352941);
#218=FILL_AREA_STYLE_COLOUR('',#217);
#219=FILL_AREA_STYLE($,(#218));
#220=SURFACE_STYLE_FILL_AREA(#219);
#221=SURFACE_SIDE_STYLE('',(#220));
#222=SURFACE_STYLE_USAGE(.BOTH.,#221);
#223=PRESENTATION_STYLE_ASSIGNMENT((#222));
#224=STYLED_ITEM('',(#223),#216);
#225=ADVANCED_FACE('',(#555,#557),#559,.F.);
#226=COLOUR_RGB('',0.564705882352941,0.564705882352941,0.564705882352941);
#227=FILL_AREA_STYLE_COLOUR('',#226);
#228=FILL_AREA_STYLE($,(#227));
#229=SURFACE_STYLE_FILL_AREA(#228);
#230=SURFACE_SIDE_STYLE('',(#229));
#231=SURFACE_STYLE_USAGE(.BOTH.,#230);
#232=PRESENTATION_STYLE_ASSIGNMENT((#231));
#233=STYLED_ITEM('',(#232),#225);
#234=ADVANCED_FACE('',(#564,#566),#568,.F.);
#235=COLOUR_RGB('',0.564705882352941,0.564705882352941,0.564705882352941);
#236=FILL_AREA_STYLE_COLOUR('',#235);
#237=FILL_AREA_STYLE($,(#236));
#238=SURFACE_STYLE_FILL_AREA(#237);
#239=SURFACE_SIDE_STYLE('',(#238));
#240=SURFACE_STYLE_USAGE(.BOTH.,#239);
#241=PRESENTATION_STYLE_ASSIGNMENT((#240));
#242=STYLED_ITEM('',(#241),#234);
#243=ADVANCED_FACE('',(#573,#575),#577,.F.);
#244=COLOUR_RGB('',0.564705882352941,0.564705882352941,0.564705882352941);
#245=FILL_AREA_STYLE_COLOUR('',#244);
#246=FILL_AREA_STYLE($,(#245));
#247=SURFACE_STYLE_FILL_AREA(#246);
#248=SURFACE_SIDE_STYLE('',(#247));
#249=SURFACE_STYLE_USAGE(.BOTH.,#248);
#250=PRESENTATION_STYLE_ASSIGNMENT((#249));
#251=STYLED_ITEM('',(#250),#243);
#252=ADVANCED_FACE('',(#582,#584),#586,.T.);
#253=COLOUR_RGB('',0.564705882352941,0.564705882352941,0.564705882352941);
#254=FILL_AREA_STYLE_COLOUR('',#253);
#255=FILL_AREA_STYLE($,(#254));
#256=SURFACE_STYLE_FILL_AREA(#255);
#257=SURFACE_SIDE_STYLE('',(#256));
#258=SURFACE_STYLE_USAGE(.BOTH.,#257);
#259=PRESENTATION_STYLE_ASSIGNMENT((#258));
#260=STYLED_ITEM('',(#259),#252);
#261=ADVANCED_FACE('',(#591,#593),#595,.F.);
#262=COLOUR_RGB('',0.564705882352941,0.564705882352941,0.564705882352941);
#263=FILL_AREA_STYLE_COLOUR('',#262);
#264=FILL_AREA_STYLE($,(#263));
#265=SURFACE_STYLE_FILL_AREA(#264);
#266=SURFACE_SIDE_STYLE('',(#265));
#267=SURFACE_STYLE_USAGE(.BOTH.,#266);
#268=PRESENTATION_STYLE_ASSIGNMENT((#267));
#269=STYLED_ITEM('',(#268),#261);
#270=ADVANCED_FACE('',(#600,#602),#604,.T.);
#271=COLOUR_RGB('',0.564705882352941,0.564705882352941,0.564705882352941);
#272=FILL_AREA_STYLE_COLOUR('',#271);
#273=FILL_AREA_STYLE($,(#272));
#274=SURFACE_STYLE_FILL_AREA(#273);
#275=SURFACE_SIDE_STYLE('',(#274));
#276=SURFACE_STYLE_USAGE(.BOTH.,#275);
#277=PRESENTATION_STYLE_ASSIGNMENT((#276));
#278=STYLED_ITEM('',(#277),#270);
#279=ADVANCED_FACE('',(#609,#611),#613,.T.);
#280=COLOUR_RGB('',0.564705882352941,0.564705882352941,0.564705882352941);
#281=FILL_AREA_STYLE_COLOUR('',#280);
#282=FILL_AREA_STYLE($,(#281));
#283=SURFACE_STYLE_FILL_AREA(#282);
#284=SURFACE_SIDE_STYLE('',(#283));
#285=SURFACE_STYLE_USAGE(.BOTH.,#284);
#286=PRESENTATION_STYLE_ASSIGNMENT((#285));
#287=STYLED_ITEM('',(#286),#279);
#288=ADVANCED_FACE('',(#618,#620),#622,.T.);
#289=COLOUR_RGB('',0.564705882352941,0.564705882352941,0.564705882352941);
#290=FILL_AREA_STYLE_COLOUR('',#289);
#291=FILL_AREA_STYLE($,(#290));
#292=SURFACE_STYLE_FILL_AREA(#291);
#293=SURFACE_SIDE_STYLE('',(#292));
#294=SURFACE_STYLE_USAGE(.BOTH.,#293);
#295=PRESENTATION_STYLE_ASSIGNMENT((#294));
#296=STYLED_ITEM('',(#295),#288);
#297=ADVANCED_FACE('',(#627,#629),#631,.T.);
#298=COLOUR_RGB('',0.564705882352941,0.564705882352941,0.564705882352941);
#299=FILL_AREA_STYLE_COLOUR('',#298);
#300=FILL_AREA_STYLE($,(#299));
#301=SURFACE_STYLE_FILL_AREA(#300);
#302=SURFACE_SIDE_STYLE('',(#301));
#303=SURFACE_STYLE_USAGE(.BOTH.,#302);
#304=PRESENTATION_STYLE_ASSIGNMENT((#303));
#305=STYLED_ITEM('',(#304),#297);
#306=ADVANCED_FACE('',(#636,#638),#640,.F.);
#307=COLOUR_RGB('',0.564705882352941,0.564705882352941,0.564705882352941);
#308=FILL_AREA_STYLE_COLOUR('',#307);
#309=FILL_AREA_STYLE($,(#308));
#310=SURFACE_STYLE_FILL_AREA(#309);
#311=SURFACE_SIDE_STYLE('',(#310));
#312=SURFACE_STYLE_USAGE(.BOTH.,#311);
#313=PRESENTATION_STYLE_ASSIGNMENT((#312));
#314=STYLED_ITEM('',(#313),#306);
#315=ADVANCED_FACE('',(#645,#647),#649,.T.);
#316=COLOUR_RGB('',0.564705882352941,0.564705882352941,0.564705882352941);
#317=FILL_AREA_STYLE_COLOUR('',#316);
#318=FILL_AREA_STYLE($,(#317));
#319=SURFACE_STYLE_FILL_AREA(#318);
#320=SURFACE_SIDE_STYLE('',(#319));
#321=SURFACE_STYLE_USAGE(.BOTH.,#320);
#322=PRESENTATION_STYLE_ASSIGNMENT((#321));
#323=STYLED_ITEM('',(#322),#315);
#324=ADVANCED_FACE('',(#654,#656),#658,.F.);
#325=COLOUR_RGB('',0.564705882352941,0.564705882352941,0.564705882352941);
#326=FILL_AREA_STYLE_COLOUR('',#325);
#327=FILL_AREA_STYLE($,(#326));
#328=SURFACE_STYLE_FILL_AREA(#327);
#329=SURFACE_SIDE_STYLE('',(#328));
#330=SURFACE_STYLE_USAGE(.BOTH.,#329);
#331=PRESENTATION_STYLE_ASSIGNMENT((#330));
#332=STYLED_ITEM('',(#331),#324);
#333=ADVANCED_FACE('',(#663,#665),#667,.F.);
#334=COLOUR_RGB('',0.564705882352941,0.564705882352941,0.564705882352941);
#335=FILL_AREA_STYLE_COLOUR('',#334);
#336=FILL_AREA_STYLE($,(#335));
#337=SURFACE_STYLE_FILL_AREA(#336);
#338=SURFACE_SIDE_STYLE('',(#337));
#339=SURFACE_STYLE_USAGE(.BOTH.,#338);
#340=PRESENTATION_STYLE_ASSIGNMENT((#339));
#341=STYLED_ITEM('',(#340),#333);
#342=ADVANCED_FACE('',(#672),#674,.T.);
#343=COLOUR_RGB('',0.564705882352941,0.564705882352941,0.564705882352941);
#344=FILL_AREA_STYLE_COLOUR('',#343);
#345=FILL_AREA_STYLE($,(#344));
#346=SURFACE_STYLE_FILL_AREA(#345);
#347=SURFACE_SIDE_STYLE('',(#346));
#348=SURFACE_STYLE_USAGE(.BOTH.,#347);
#349=PRESENTATION_STYLE_ASSIGNMENT((#348));
#350=STYLED_ITEM('',(#349),#342);
#351=ADVANCED_FACE('',(#679),#681,.T.);
#352=COLOUR_RGB('',0.564705882352941,0.564705882352941,0.564705882352941);
#353=FILL_AREA_STYLE_COLOUR('',#352);
#354=FILL_AREA_STYLE($,(#353));
#355=SURFACE_STYLE_FILL_AREA(#354);
#356=SURFACE_SIDE_STYLE('',(#355));
#357=SURFACE_STYLE_USAGE(.BOTH.,#356);
#358=PRESENTATION_STYLE_ASSIGNMENT((#357));
#359=STYLED_ITEM('',(#358),#351);
#360=ADVANCED_FACE('',(#686),#688,.T.);
#361=COLOUR_RGB('',0.564705882352941,0.564705882352941,0.564705882352941);
#362=FILL_AREA_STYLE_COLOUR('',#361);
#363=FILL_AREA_STYLE($,(#362));
#364=SURFACE_STYLE_FILL_AREA(#363);
#365=SURFACE_SIDE_STYLE('',(#364));
#366=SURFACE_STYLE_USAGE(.BOTH.,#365);
#367=PRESENTATION_STYLE_ASSIGNMENT((#366));
#368=STYLED_ITEM('',(#367),#360);
#369=ADVANCED_FACE('',(#693),#695,.T.);
#370=COLOUR_RGB('',0.564705882352941,0.564705882352941,0.564705882352941);
#371=FILL_AREA_STYLE_COLOUR('',#370);
#372=FILL_AREA_STYLE($,(#371));
#373=SURFACE_STYLE_FILL_AREA(#372);
#374=SURFACE_SIDE_STYLE('',(#373));
#375=SURFACE_STYLE_USAGE(.BOTH.,#374);
#376=PRESENTATION_STYLE_ASSIGNMENT((#375));
#377=STYLED_ITEM('',(#376),#369);
#378=ADVANCED_FACE('',(#700),#702,.T.);
#379=COLOUR_RGB('',0.564705882352941,0.564705882352941,0.564705882352941);
#380=FILL_AREA_STYLE_COLOUR('',#379);
#381=FILL_AREA_STYLE($,(#380));
#382=SURFACE_STYLE_FILL_AREA(#381);
#383=SURFACE_SIDE_STYLE('',(#382));
#384=SURFACE_STYLE_USAGE(.BOTH.,#383);
#385=PRESENTATION_STYLE_ASSIGNMENT((#384));
#386=STYLED_ITEM('',(#385),#378);
#387=ADVANCED_FACE('',(#707),#709,.T.);
#388=COLOUR_RGB('',0.564705882352941,0.564705882352941,0.564705882352941);
#389=FILL_AREA_STYLE_COLOUR('',#388);
#390=FILL_AREA_STYLE($,(#389));
#391=SURFACE_STYLE_FILL_AREA(#390);
#392=SURFACE_SIDE_STYLE('',(#391));
#393=SURFACE_STYLE_USAGE(.BOTH.,#392);
#394=PRESENTATION_STYLE_ASSIGNMENT((#393));
#395=STYLED_ITEM('',(#394),#387);
#396=ADVANCED_FACE('',(#714),#716,.F.);
#397=COLOUR_RGB('',0.564705882352941,0.564705882352941,0.564705882352941);
#398=FILL_AREA_STYLE_COLOUR('',#397);
#399=FILL_AREA_STYLE($,(#398));
#400=SURFACE_STYLE_FILL_AREA(#399);
#401=SURFACE_SIDE_STYLE('',(#400));
#402=SURFACE_STYLE_USAGE(.BOTH.,#401);
#403=PRESENTATION_STYLE_ASSIGNMENT((#402));
#404=STYLED_ITEM('',(#403),#396);
#405=ADVANCED_FACE('',(#721),#723,.F.);
#406=COLOUR_RGB('',0.564705882352941,0.564705882352941,0.564705882352941);
#407=FILL_AREA_STYLE_COLOUR('',#406);
#408=FILL_AREA_STYLE($,(#407));
#409=SURFACE_STYLE_FILL_AREA(#408);
#410=SURFACE_SIDE_STYLE('',(#409));
#411=SURFACE_STYLE_USAGE(.BOTH.,#410);
#412=PRESENTATION_STYLE_ASSIGNMENT((#411));
#413=STYLED_ITEM('',(#412),#405);
#414=FACE_OUTER_BOUND('',#415,.T.);
#415=EDGE_LOOP('',(#728));
#416=FACE_OUTER_BOUND('',#417,.T.);
#417=EDGE_LOOP('',(#729));
#418=CYLINDRICAL_SURFACE('',#419,2.1);
#419=AXIS2_PLACEMENT_3D('',#420,#421,#422);
#420=CARTESIAN_POINT('',(0.,10.,0.));
#421=DIRECTION('',(0.,1.,0.));
#422=DIRECTION('',(-1.,0.,-1.22464679914735E-16));
#423=FACE_BOUND('',#424,.T.);
#424=EDGE_LOOP('',(#730,#731,#732,#733));
#425=FACE_BOUND('',#426,.T.);
#426=EDGE_LOOP('',(#734));
#427=PLANE('',#428);
#428=AXIS2_PLACEMENT_3D('',#429,#430,#431);
#429=CARTESIAN_POINT('',(9.,21.,-6.));
#430=DIRECTION('',(0.,1.,0.));
#431=DIRECTION('',(-1.,0.,0.));
#432=FACE_OUTER_BOUND('',#433,.T.);
#433=EDGE_LOOP('',(#735));
#434=FACE_OUTER_BOUND('',#435,.T.);
#435=EDGE_LOOP('',(#736));
#436=CYLINDRICAL_SURFACE('',#437,4.7);
#437=AXIS2_PLACEMENT_3D('',#438,#439,#440);
#438=CARTESIAN_POINT('',(0.,15.,0.));
#439=DIRECTION('',(0.,1.,0.));
#440=DIRECTION('',(-1.,0.,-1.22464679914735E-16));
#441=FACE_BOUND('',#442,.T.);
#442=EDGE_LOOP('',(#737));
#443=FACE_BOUND('',#444,.T.);
#444=EDGE_LOOP('',(#738));
#445=PLANE('',#446);
#446=AXIS2_PLACEMENT_3D('',#447,#448,#449);
#447=CARTESIAN_POINT('',(0.,15.,0.));
#448=DIRECTION('',(0.,1.,0.));
#449=DIRECTION('',(-1.,0.,-1.22464679914735E-16));
#450=FACE_BOUND('',#451,.T.);
#451=EDGE_LOOP('',(#739));
#452=FACE_BOUND('',#453,.T.);
#453=EDGE_LOOP('',(#740));
#454=PLANE('',#455);
#455=AXIS2_PLACEMENT_3D('',#456,#457,#458);
#456=CARTESIAN_POINT('',(0.,10.,0.));
#457=DIRECTION('',(0.,1.,0.));
#458=DIRECTION('',(-1.,0.,-1.22464679914735E-16));
#459=FACE_BOUND('',#460,.T.);
#460=EDGE_LOOP('',(#741,#742,#743,#744,#745,#746,#747,#748,#749,#750,#751,#752,#753,
#754,#755,#756));
#461=PLANE('',#462);
#462=AXIS2_PLACEMENT_3D('',#463,#464,#465);
#463=CARTESIAN_POINT('',(0.,0.,-6.));
#464=DIRECTION('',(0.,0.,1.));
#465=DIRECTION('',(-1.,1.22464679914735E-16,0.));
#466=FACE_BOUND('',#467,.T.);
#467=EDGE_LOOP('',(#757,#758,#759,#760));
#468=PLANE('',#469);
#469=AXIS2_PLACEMENT_3D('',#470,#471,#472);
#470=CARTESIAN_POINT('',(-9.,21.,-6.));
#471=DIRECTION('',(-1.,1.33162821601057E-16,0.));
#472=DIRECTION('',(-1.33162821601057E-16,-1.,0.));
#473=FACE_BOUND('',#474,.T.);
#474=EDGE_LOOP('',(#761,#762,#763,#764,#765,#766,#767,#768,#769,#770,#771,#772,#773,
#774,#775,#776));
#475=PLANE('',#476);
#476=AXIS2_PLACEMENT_3D('',#477,#478,#479);
#477=CARTESIAN_POINT('',(0.,0.,6.));
#478=DIRECTION('',(0.,0.,1.));
#479=DIRECTION('',(-1.,1.22464679914735E-16,0.));
#480=FACE_BOUND('',#481,.T.);
#481=EDGE_LOOP('',(#777,#778,#779,#780));
#482=PLANE('',#483);
#483=AXIS2_PLACEMENT_3D('',#484,#485,#486);
#484=CARTESIAN_POINT('',(8.99999999999999,-32.3589426250531,-6.));
#485=DIRECTION('',(1.,-1.33162821601057E-16,0.));
#486=DIRECTION('',(1.33162821601057E-16,1.,0.));
#487=FACE_BOUND('',#488,.T.);
#488=EDGE_LOOP('',(#781,#782,#783));
#489=FACE_OUTER_BOUND('',#490,.T.);
#490=EDGE_LOOP('',(#784));
#491=CYLINDRICAL_SURFACE('',#492,1.25);
#492=AXIS2_PLACEMENT_3D('',#493,#494,#495);
#493=CARTESIAN_POINT('',(0.,21.,0.));
#494=DIRECTION('',(0.,-1.,0.));
#495=DIRECTION('',(-1.,0.,-1.22464679914735E-16));
#496=FACE_BOUND('',#497,.T.);
#497=EDGE_LOOP('',(#785,#786,#787,#788));
#498=FACE_BOUND('',#499,.T.);
#499=EDGE_LOOP('',(#789));
#500=PLANE('',#501);
#501=AXIS2_PLACEMENT_3D('',#502,#503,#504);
#502=CARTESIAN_POINT('',(-13.7128730395798,-82.4636794000715,-6.));
#503=DIRECTION('',(-4.66341707050244E-15,-1.,0.));
#504=DIRECTION('',(1.,-4.66341707050244E-15,0.));
#505=FACE_BOUND('',#506,.T.);
#506=EDGE_LOOP('',(#790,#791,#792,#793));
#507=FACE_BOUND('',#508,.T.);
#508=EDGE_LOOP('',(#794));
#509=PLANE('',#510);
#510=AXIS2_PLACEMENT_3D('',#511,#512,#513);
#511=CARTESIAN_POINT('',(-27.5494878640994,-76.6716080781795,-6.));
#512=DIRECTION('',(-0.386138088126131,-0.922440988301309,0.));
#513=DIRECTION('',(0.922440988301309,-0.386138088126131,0.));
#514=FACE_BOUND('',#515,.T.);
#515=EDGE_LOOP('',(#795,#796,#797,#798));
#516=PLANE('',#517);
#517=AXIS2_PLACEMENT_3D('',#518,#519,#520);
#518=CARTESIAN_POINT('',(-9.00000000000001,-32.3589426250532,-6.));
#519=DIRECTION('',(-0.92244098830131,0.386138088126131,0.));
#520=DIRECTION('',(-0.386138088126131,-0.92244098830131,0.));
#521=FACE_BOUND('',#522,.T.);
#522=EDGE_LOOP('',(#799,#800,#801,#802));
#523=PLANE('',#524);
#524=AXIS2_PLACEMENT_3D('',#525,#526,#527);
#525=CARTESIAN_POINT('',(27.5494878640994,-76.6716080781796,-6.));
#526=DIRECTION('',(0.92244098830131,0.386138088126129,0.));
#527=DIRECTION('',(-0.386138088126129,0.92244098830131,0.));
#528=FACE_BOUND('',#529,.T.);
#529=EDGE_LOOP('',(#803,#804,#805,#806));
#530=FACE_BOUND('',#531,.T.);
#531=EDGE_LOOP('',(#807));
#532=PLANE('',#533);
#533=AXIS2_PLACEMENT_3D('',#534,#535,#536);
#534=CARTESIAN_POINT('',(13.7128730395798,-82.4636794000716,-6.));
#535=DIRECTION('',(0.386138088126129,-0.92244098830131,0.));
#536=DIRECTION('',(0.92244098830131,0.386138088126129,0.));
#537=FACE_BOUND('',#538,.T.);
#538=EDGE_LOOP('',(#808,#809,#810,#811));
#539=FACE_OUTER_BOUND('',#540,.T.);
#540=EDGE_LOOP('',(#812));
#541=TOROIDAL_SURFACE('',#542,194.231033680111,1.25);
#542=AXIS2_PLACEMENT_3D('',#543,#544,#545);
#543=CARTESIAN_POINT('',(-194.166666666667,5.00000000000003,-1.61568280997952E-15));
#544=DIRECTION('',(0.,0.,1.));
#545=DIRECTION('',(0.92244098830131,-0.38613808812613,0.));
#546=FACE_OUTER_BOUND('',#547,.T.);
#547=EDGE_LOOP('',(#813));
#548=FACE_BOUND('',#549,.T.);
#549=EDGE_LOOP('',(#814,#815,#816));
#550=TOROIDAL_SURFACE('',#551,194.231033680111,1.25);
#551=AXIS2_PLACEMENT_3D('',#552,#553,#554);
#552=CARTESIAN_POINT('',(194.166666666667,4.99999999999999,1.61568280997951E-15));
#553=DIRECTION('',(0.,0.,-1.));
#554=DIRECTION('',(-0.92244098830131,-0.386138088126129,0.));
#555=FACE_OUTER_BOUND('',#556,.T.);
#556=EDGE_LOOP('',(#817));
#557=FACE_OUTER_BOUND('',#558,.T.);
#558=EDGE_LOOP('',(#818));
#559=CYLINDRICAL_SURFACE('',#560,4.7);
#560=AXIS2_PLACEMENT_3D('',#561,#562,#563);
#561=CARTESIAN_POINT('',(-3.56582027787719E-13,-76.4636794000715,0.));
#562=DIRECTION('',(-4.66341707050244E-15,-1.,0.));
#563=DIRECTION('',(-1.,4.66341707050244E-15,1.22464679914735E-16));
#564=FACE_OUTER_BOUND('',#565,.T.);
#565=EDGE_LOOP('',(#819));
#566=FACE_OUTER_BOUND('',#567,.T.);
#567=EDGE_LOOP('',(#820));
#568=CYLINDRICAL_SURFACE('',#569,4.7);
#569=AXIS2_PLACEMENT_3D('',#570,#571,#572);
#570=CARTESIAN_POINT('',(-16.9306904406309,-74.6122049415068,-1.61568280997952E-15));
#571=DIRECTION('',(-0.386138088126131,-0.92244098830131,0.));
#572=DIRECTION('',(-0.922440988301309,0.386138088126131,1.22464679914735E-16));
#573=FACE_OUTER_BOUND('',#574,.T.);
#574=EDGE_LOOP('',(#821));
#575=FACE_OUTER_BOUND('',#576,.T.);
#576=EDGE_LOOP('',(#822));
#577=CYLINDRICAL_SURFACE('',#578,4.7);
#578=AXIS2_PLACEMENT_3D('',#579,#580,#581);
#579=CARTESIAN_POINT('',(16.9306904406309,-74.6122049415069,1.61568280997951E-15));
#580=DIRECTION('',(0.386138088126129,-0.92244098830131,-2.04168744600203E-33));
#581=DIRECTION('',(-0.92244098830131,-0.386138088126129,1.22464679914735E-16));
#582=FACE_BOUND('',#583,.T.);
#583=EDGE_LOOP('',(#823));
#584=FACE_BOUND('',#585,.T.);
#585=EDGE_LOOP('',(#824));
#586=PLANE('',#587);
#587=AXIS2_PLACEMENT_3D('',#588,#589,#590);
#588=CARTESIAN_POINT('',(-27.1698113207549,-64.9056603773588,0.));
#589=DIRECTION('',(-0.386138088126131,-0.92244098830131,0.));
#590=DIRECTION('',(-0.92244098830131,0.386138088126131,1.22464679914735E-16));
#591=FACE_BOUND('',#592,.T.);
#592=EDGE_LOOP('',(#825,#826,#827,#828));
#593=FACE_OUTER_BOUND('',#594,.T.);
#594=EDGE_LOOP('',(#829));
#595=CYLINDRICAL_SURFACE('',#596,1.25);
#596=AXIS2_PLACEMENT_3D('',#597,#598,#599);
#597=CARTESIAN_POINT('',(0.,21.,0.));
#598=DIRECTION('',(0.,-1.,0.));
#599=DIRECTION('',(-1.,0.,-1.22464679914735E-16));
#600=FACE_BOUND('',#601,.T.);
#601=EDGE_LOOP('',(#830));
#602=FACE_BOUND('',#603,.T.);
#603=EDGE_LOOP('',(#831));
#604=PLANE('',#605);
#605=AXIS2_PLACEMENT_3D('',#606,#607,#608);
#606=CARTESIAN_POINT('',(27.1698113207548,-64.9056603773589,-1.555263248536E-30));
#607=DIRECTION('',(0.386138088126129,-0.92244098830131,6.16297582203915E-33));
#608=DIRECTION('',(-0.92244098830131,-0.386138088126129,1.22464679914735E-16));
#609=FACE_BOUND('',#610,.T.);
#610=EDGE_LOOP('',(#832));
#611=FACE_BOUND('',#612,.T.);
#612=EDGE_LOOP('',(#833));
#613=PLANE('',#614);
#614=AXIS2_PLACEMENT_3D('',#615,#616,#617);
#615=CARTESIAN_POINT('',(-3.56582027787719E-13,-76.4636794000715,0.));
#616=DIRECTION('',(-4.66341707050244E-15,-1.,0.));
#617=DIRECTION('',(-1.,4.66341707050244E-15,1.22464679914735E-16));
#618=FACE_BOUND('',#619,.T.);
#619=EDGE_LOOP('',(#834));
#620=FACE_BOUND('',#621,.T.);
#621=EDGE_LOOP('',(#835));
#622=PLANE('',#623);
#623=AXIS2_PLACEMENT_3D('',#624,#625,#626);
#624=CARTESIAN_POINT('',(-29.1005017613856,-69.5178653188653,0.));
#625=DIRECTION('',(-0.386138088126131,-0.92244098830131,0.));
#626=DIRECTION('',(-0.92244098830131,0.386138088126131,1.22464679914735E-16));
#627=FACE_BOUND('',#628,.T.);
#628=EDGE_LOOP('',(#836));
#629=FACE_BOUND('',#630,.T.);
#630=EDGE_LOOP('',(#837));
#631=PLANE('',#632);
#632=AXIS2_PLACEMENT_3D('',#633,#634,#635);
#633=CARTESIAN_POINT('',(29.1005017613855,-69.5178653188655,-1.56547168576601E-30));
#634=DIRECTION('',(0.386138088126129,-0.92244098830131,6.16297582203915E-33));
#635=DIRECTION('',(-0.92244098830131,-0.386138088126129,1.22464679914735E-16));
#636=FACE_OUTER_BOUND('',#637,.T.);
#637=EDGE_LOOP('',(#838));
#638=FACE_OUTER_BOUND('',#639,.T.);
#639=EDGE_LOOP('',(#839));
#640=CYLINDRICAL_SURFACE('',#641,2.1);
#641=AXIS2_PLACEMENT_3D('',#642,#643,#644);
#642=CARTESIAN_POINT('',(-15.0000000000002,-70.0000000000003,-1.61568280997952E-15));
#643=DIRECTION('',(-0.386138088126131,-0.922440988301309,0.));
#644=DIRECTION('',(-0.922440988301309,0.386138088126131,1.22464679914735E-16));
#645=FACE_BOUND('',#646,.T.);
#646=EDGE_LOOP('',(#840));
#647=FACE_BOUND('',#648,.T.);
#648=EDGE_LOOP('',(#841));
#649=PLANE('',#650);
#650=AXIS2_PLACEMENT_3D('',#651,#652,#653);
#651=CARTESIAN_POINT('',(-3.33264942435207E-13,-71.4636794000715,0.));
#652=DIRECTION('',(-4.66341707050244E-15,-1.,0.));
#653=DIRECTION('',(-1.,4.66341707050244E-15,1.22464679914735E-16));
#654=FACE_OUTER_BOUND('',#655,.T.);
#655=EDGE_LOOP('',(#842));
#656=FACE_OUTER_BOUND('',#657,.T.);
#657=EDGE_LOOP('',(#843));
#658=CYLINDRICAL_SURFACE('',#659,2.1);
#659=AXIS2_PLACEMENT_3D('',#660,#661,#662);
#660=CARTESIAN_POINT('',(15.0000000000002,-70.0000000000004,1.61568280997951E-15));
#661=DIRECTION('',(0.386138088126129,-0.92244098830131,-2.04168744600204E-33));
#662=DIRECTION('',(-0.92244098830131,-0.386138088126129,1.22464679914735E-16));
#663=FACE_OUTER_BOUND('',#664,.T.);
#664=EDGE_LOOP('',(#844));
#665=FACE_OUTER_BOUND('',#666,.T.);
#666=EDGE_LOOP('',(#845));
#667=CYLINDRICAL_SURFACE('',#668,2.1);
#668=AXIS2_PLACEMENT_3D('',#669,#670,#671);
#669=CARTESIAN_POINT('',(-3.33264942435207E-13,-71.4636794000715,0.));
#670=DIRECTION('',(-4.66341707050244E-15,-1.,0.));
#671=DIRECTION('',(-1.,4.66341707050244E-15,1.22464679914735E-16));
#672=FACE_BOUND('',#673,.T.);
#673=EDGE_LOOP('',(#846,#847,#848,#849));
#674=CYLINDRICAL_SURFACE('',#675,3.);
#675=AXIS2_PLACEMENT_3D('',#676,#677,#678);
#676=CARTESIAN_POINT('',(13.110298359042,-79.4636794000716,-18.));
#677=DIRECTION('',(0.,0.,-1.));
#678=DIRECTION('',(0.386138088126129,-0.92244098830131,0.));
#679=FACE_BOUND('',#680,.T.);
#680=EDGE_LOOP('',(#850,#851,#852,#853));
#681=CYLINDRICAL_SURFACE('',#682,3.);
#682=AXIS2_PLACEMENT_3D('',#683,#684,#685);
#683=CARTESIAN_POINT('',(-13.110298359042,-79.4636794000714,-18.));
#684=DIRECTION('',(0.,0.,-1.));
#685=DIRECTION('',(-5.32907051820073E-15,-1.,0.));
#686=FACE_BOUND('',#687,.T.);
#687=EDGE_LOOP('',(#854,#855,#856,#857));
#688=CYLINDRICAL_SURFACE('',#689,3.);
#689=AXIS2_PLACEMENT_3D('',#690,#691,#692);
#690=CARTESIAN_POINT('',(-23.6237506348171,-75.062699377654,-18.));
#691=DIRECTION('',(0.,0.,-1.));
#692=DIRECTION('',(-0.38613808812613,-0.92244098830131,0.));
#693=FACE_BOUND('',#694,.T.);
#694=EDGE_LOOP('',(#858,#859,#860,#861));
#695=CYLINDRICAL_SURFACE('',#696,3.);
#696=AXIS2_PLACEMENT_3D('',#697,#698,#699);
#697=CARTESIAN_POINT('',(23.6237506348171,-75.0626993776541,-18.));
#698=DIRECTION('',(0.,0.,-1.));
#699=DIRECTION('',(0.922440988301311,0.386138088126127,0.));
#700=FACE_BOUND('',#701,.T.);
#701=EDGE_LOOP('',(#862,#863,#864,#865));
#702=CYLINDRICAL_SURFACE('',#703,3.);
#703=AXIS2_PLACEMENT_3D('',#704,#705,#706);
#704=CARTESIAN_POINT('',(-6.,18.,-18.));
#705=DIRECTION('',(0.,0.,-1.));
#706=DIRECTION('',(-1.,0.,0.));
#707=FACE_BOUND('',#708,.T.);
#708=EDGE_LOOP('',(#866,#867,#868,#869));
#709=CYLINDRICAL_SURFACE('',#710,3.);
#710=AXIS2_PLACEMENT_3D('',#711,#712,#713);
#711=CARTESIAN_POINT('',(6.,18.,-18.));
#712=DIRECTION('',(0.,0.,-1.));
#713=DIRECTION('',(0.,1.,0.));
#714=FACE_BOUND('',#715,.T.);
#715=EDGE_LOOP('',(#870,#871,#872,#873));
#716=CYLINDRICAL_SURFACE('',#717,20.);
#717=AXIS2_PLACEMENT_3D('',#718,#719,#720);
#718=CARTESIAN_POINT('',(-29.,-28.3417780881347,-86.));
#719=DIRECTION('',(0.,0.,1.));
#720=DIRECTION('',(0.92244098830131,-0.38613808812613,0.));
#721=FACE_BOUND('',#722,.T.);
#722=EDGE_LOOP('',(#874,#875,#876,#877));
#723=CYLINDRICAL_SURFACE('',#724,20.);
#724=AXIS2_PLACEMENT_3D('',#725,#726,#727);
#725=CARTESIAN_POINT('',(29.,-28.3417780881346,-86.));
#726=DIRECTION('',(0.,0.,1.));
#727=DIRECTION('',(-1.,1.77635683940025E-16,0.));
#728=ORIENTED_EDGE('',*,*,#878,.T.);
#729=ORIENTED_EDGE('',*,*,#879,.F.);
#730=ORIENTED_EDGE('',*,*,#880,.F.);
#731=ORIENTED_EDGE('',*,*,#881,.T.);
#732=ORIENTED_EDGE('',*,*,#882,.T.);
#733=ORIENTED_EDGE('',*,*,#883,.F.);
#734=ORIENTED_EDGE('',*,*,#884,.T.);
#735=ORIENTED_EDGE('',*,*,#884,.F.);
#736=ORIENTED_EDGE('',*,*,#885,.F.);
#737=ORIENTED_EDGE('',*,*,#885,.T.);
#738=ORIENTED_EDGE('',*,*,#878,.F.);
#739=ORIENTED_EDGE('',*,*,#879,.T.);
#740=ORIENTED_EDGE('',*,*,#886,.F.);
#741=ORIENTED_EDGE('',*,*,#887,.F.);
#742=ORIENTED_EDGE('',*,*,#888,.F.);
#743=ORIENTED_EDGE('',*,*,#889,.F.);
#744=ORIENTED_EDGE('',*,*,#890,.F.);
#745=ORIENTED_EDGE('',*,*,#891,.F.);
#746=ORIENTED_EDGE('',*,*,#892,.F.);
#747=ORIENTED_EDGE('',*,*,#893,.F.);
#748=ORIENTED_EDGE('',*,*,#894,.F.);
#749=ORIENTED_EDGE('',*,*,#895,.F.);
#750=ORIENTED_EDGE('',*,*,#896,.F.);
#751=ORIENTED_EDGE('',*,*,#897,.F.);
#752=ORIENTED_EDGE('',*,*,#898,.F.);
#753=ORIENTED_EDGE('',*,*,#899,.F.);
#754=ORIENTED_EDGE('',*,*,#881,.F.);
#755=ORIENTED_EDGE('',*,*,#900,.F.);
#756=ORIENTED_EDGE('',*,*,#901,.F.);
#757=ORIENTED_EDGE('',*,*,#902,.T.);
#758=ORIENTED_EDGE('',*,*,#903,.F.);
#759=ORIENTED_EDGE('',*,*,#904,.F.);
#760=ORIENTED_EDGE('',*,*,#898,.T.);
#761=ORIENTED_EDGE('',*,*,#905,.F.);
#762=ORIENTED_EDGE('',*,*,#906,.T.);
#763=ORIENTED_EDGE('',*,*,#907,.F.);
#764=ORIENTED_EDGE('',*,*,#883,.T.);
#765=ORIENTED_EDGE('',*,*,#908,.F.);
#766=ORIENTED_EDGE('',*,*,#903,.T.);
#767=ORIENTED_EDGE('',*,*,#909,.F.);
#768=ORIENTED_EDGE('',*,*,#910,.T.);
#769=ORIENTED_EDGE('',*,*,#911,.F.);
#770=ORIENTED_EDGE('',*,*,#912,.T.);
#771=ORIENTED_EDGE('',*,*,#913,.F.);
#772=ORIENTED_EDGE('',*,*,#914,.T.);
#773=ORIENTED_EDGE('',*,*,#915,.F.);
#774=ORIENTED_EDGE('',*,*,#916,.T.);
#775=ORIENTED_EDGE('',*,*,#917,.F.);
#776=ORIENTED_EDGE('',*,*,#918,.T.);
#777=ORIENTED_EDGE('',*,*,#919,.F.);
#778=ORIENTED_EDGE('',*,*,#901,.T.);
#779=ORIENTED_EDGE('',*,*,#920,.T.);
#780=ORIENTED_EDGE('',*,*,#906,.F.);
#781=ORIENTED_EDGE('',*,*,#921,.T.);
#782=ORIENTED_EDGE('',*,*,#922,.T.);
#783=ORIENTED_EDGE('',*,*,#923,.T.);
#784=ORIENTED_EDGE('',*,*,#886,.T.);
#785=ORIENTED_EDGE('',*,*,#924,.F.);
#786=ORIENTED_EDGE('',*,*,#892,.T.);
#787=ORIENTED_EDGE('',*,*,#925,.T.);
#788=ORIENTED_EDGE('',*,*,#914,.F.);
#789=ORIENTED_EDGE('',*,*,#926,.T.);
#790=ORIENTED_EDGE('',*,*,#927,.F.);
#791=ORIENTED_EDGE('',*,*,#894,.T.);
#792=ORIENTED_EDGE('',*,*,#928,.T.);
#793=ORIENTED_EDGE('',*,*,#912,.F.);
#794=ORIENTED_EDGE('',*,*,#929,.T.);
#795=ORIENTED_EDGE('',*,*,#930,.F.);
#796=ORIENTED_EDGE('',*,*,#896,.T.);
#797=ORIENTED_EDGE('',*,*,#931,.T.);
#798=ORIENTED_EDGE('',*,*,#910,.F.);
#799=ORIENTED_EDGE('',*,*,#932,.T.);
#800=ORIENTED_EDGE('',*,*,#918,.F.);
#801=ORIENTED_EDGE('',*,*,#933,.F.);
#802=ORIENTED_EDGE('',*,*,#888,.T.);
#803=ORIENTED_EDGE('',*,*,#934,.T.);
#804=ORIENTED_EDGE('',*,*,#916,.F.);
#805=ORIENTED_EDGE('',*,*,#935,.F.);
#806=ORIENTED_EDGE('',*,*,#890,.T.);
#807=ORIENTED_EDGE('',*,*,#936,.T.);
#808=ORIENTED_EDGE('',*,*,#923,.F.);
#809=ORIENTED_EDGE('',*,*,#922,.F.);
#810=ORIENTED_EDGE('',*,*,#937,.F.);
#811=ORIENTED_EDGE('',*,*,#938,.F.);
#812=ORIENTED_EDGE('',*,*,#939,.T.);
#813=ORIENTED_EDGE('',*,*,#940,.T.);
#814=ORIENTED_EDGE('',*,*,#941,.F.);
#815=ORIENTED_EDGE('',*,*,#921,.F.);
#816=ORIENTED_EDGE('',*,*,#942,.F.);
#817=ORIENTED_EDGE('',*,*,#943,.F.);
#818=ORIENTED_EDGE('',*,*,#926,.F.);
#819=ORIENTED_EDGE('',*,*,#944,.F.);
#820=ORIENTED_EDGE('',*,*,#929,.F.);
#821=ORIENTED_EDGE('',*,*,#936,.F.);
#822=ORIENTED_EDGE('',*,*,#945,.F.);
#823=ORIENTED_EDGE('',*,*,#946,.T.);
#824=ORIENTED_EDGE('',*,*,#939,.F.);
#825=ORIENTED_EDGE('',*,*,#942,.T.);
#826=ORIENTED_EDGE('',*,*,#938,.T.);
#827=ORIENTED_EDGE('',*,*,#937,.T.);
#828=ORIENTED_EDGE('',*,*,#941,.T.);
#829=ORIENTED_EDGE('',*,*,#947,.T.);
#830=ORIENTED_EDGE('',*,*,#948,.T.);
#831=ORIENTED_EDGE('',*,*,#940,.F.);
#832=ORIENTED_EDGE('',*,*,#943,.T.);
#833=ORIENTED_EDGE('',*,*,#949,.T.);
#834=ORIENTED_EDGE('',*,*,#944,.T.);
#835=ORIENTED_EDGE('',*,*,#950,.T.);
#836=ORIENTED_EDGE('',*,*,#945,.T.);
#837=ORIENTED_EDGE('',*,*,#951,.F.);
#838=ORIENTED_EDGE('',*,*,#946,.F.);
#839=ORIENTED_EDGE('',*,*,#950,.F.);
#840=ORIENTED_EDGE('',*,*,#952,.T.);
#841=ORIENTED_EDGE('',*,*,#947,.F.);
#842=ORIENTED_EDGE('',*,*,#951,.T.);
#843=ORIENTED_EDGE('',*,*,#948,.F.);
#844=ORIENTED_EDGE('',*,*,#952,.F.);
#845=ORIENTED_EDGE('',*,*,#949,.F.);
#846=ORIENTED_EDGE('',*,*,#925,.F.);
#847=ORIENTED_EDGE('',*,*,#891,.T.);
#848=ORIENTED_EDGE('',*,*,#935,.T.);
#849=ORIENTED_EDGE('',*,*,#915,.T.);
#850=ORIENTED_EDGE('',*,*,#928,.F.);
#851=ORIENTED_EDGE('',*,*,#893,.T.);
#852=ORIENTED_EDGE('',*,*,#924,.T.);
#853=ORIENTED_EDGE('',*,*,#913,.T.);
#854=ORIENTED_EDGE('',*,*,#931,.F.);
#855=ORIENTED_EDGE('',*,*,#895,.T.);
#856=ORIENTED_EDGE('',*,*,#927,.T.);
#857=ORIENTED_EDGE('',*,*,#911,.T.);
#858=ORIENTED_EDGE('',*,*,#934,.F.);
#859=ORIENTED_EDGE('',*,*,#889,.T.);
#860=ORIENTED_EDGE('',*,*,#933,.T.);
#861=ORIENTED_EDGE('',*,*,#917,.T.);
#862=ORIENTED_EDGE('',*,*,#882,.F.);
#863=ORIENTED_EDGE('',*,*,#899,.T.);
#864=ORIENTED_EDGE('',*,*,#904,.T.);
#865=ORIENTED_EDGE('',*,*,#908,.T.);
#866=ORIENTED_EDGE('',*,*,#920,.F.);
#867=ORIENTED_EDGE('',*,*,#900,.T.);
#868=ORIENTED_EDGE('',*,*,#880,.T.);
#869=ORIENTED_EDGE('',*,*,#907,.T.);
#870=ORIENTED_EDGE('',*,*,#902,.F.);
#871=ORIENTED_EDGE('',*,*,#897,.T.);
#872=ORIENTED_EDGE('',*,*,#930,.T.);
#873=ORIENTED_EDGE('',*,*,#909,.T.);
#874=ORIENTED_EDGE('',*,*,#932,.F.);
#875=ORIENTED_EDGE('',*,*,#887,.T.);
#876=ORIENTED_EDGE('',*,*,#919,.T.);
#877=ORIENTED_EDGE('',*,*,#905,.T.);
#878=EDGE_CURVE('',#953,#953,#954,.T.);
#879=EDGE_CURVE('',#955,#955,#956,.T.);
#880=EDGE_CURVE('',#957,#958,#959,.T.);
#881=EDGE_CURVE('',#957,#960,#961,.T.);
#882=EDGE_CURVE('',#960,#962,#963,.T.);
#883=EDGE_CURVE('',#958,#962,#964,.T.);
#884=EDGE_CURVE('',#965,#965,#966,.F.);
#885=EDGE_CURVE('',#967,#967,#968,.T.);
#886=EDGE_CURVE('',#969,#969,#970,.F.);
#887=EDGE_CURVE('',#971,#972,#973,.F.);
#888=EDGE_CURVE('',#974,#971,#975,.T.);
#889=EDGE_CURVE('',#976,#974,#977,.F.);
#890=EDGE_CURVE('',#978,#976,#979,.T.);
#891=EDGE_CURVE('',#980,#978,#981,.F.);
#892=EDGE_CURVE('',#982,#980,#983,.T.);
#893=EDGE_CURVE('',#984,#982,#985,.F.);
#894=EDGE_CURVE('',#986,#984,#987,.T.);
#895=EDGE_CURVE('',#988,#986,#989,.F.);
#896=EDGE_CURVE('',#990,#988,#991,.T.);
#897=EDGE_CURVE('',#992,#990,#993,.F.);
#898=EDGE_CURVE('',#994,#992,#995,.T.);
#899=EDGE_CURVE('',#960,#994,#996,.F.);
#900=EDGE_CURVE('',#997,#957,#998,.F.);
#901=EDGE_CURVE('',#972,#997,#999,.T.);
#902=EDGE_CURVE('',#992,#1000,#1001,.T.);
#903=EDGE_CURVE('',#1002,#1000,#1003,.T.);
#904=EDGE_CURVE('',#994,#1002,#1004,.T.);
#905=EDGE_CURVE('',#1005,#1006,#1007,.F.);
#906=EDGE_CURVE('',#1005,#1008,#1009,.T.);
#907=EDGE_CURVE('',#958,#1008,#1010,.F.);
#908=EDGE_CURVE('',#1002,#962,#1011,.F.);
#909=EDGE_CURVE('',#1012,#1000,#1013,.F.);
#910=EDGE_CURVE('',#1012,#1014,#1015,.T.);
#911=EDGE_CURVE('',#1016,#1014,#1017,.F.);
#912=EDGE_CURVE('',#1016,#1018,#1019,.T.);
#913=EDGE_CURVE('',#1020,#1018,#1021,.F.);
#914=EDGE_CURVE('',#1020,#1022,#1023,.T.);
#915=EDGE_CURVE('',#1024,#1022,#1025,.F.);
#916=EDGE_CURVE('',#1024,#1026,#1027,.T.);
#917=EDGE_CURVE('',#1028,#1026,#1029,.F.);
#918=EDGE_CURVE('',#1028,#1006,#1030,.T.);
#919=EDGE_CURVE('',#972,#1005,#1031,.T.);
#920=EDGE_CURVE('',#997,#1008,#1032,.T.);
#921=EDGE_CURVE('',#1033,#1034,#1035,.T.);
#922=EDGE_CURVE('',#1034,#1036,#1037,.F.);
#923=EDGE_CURVE('',#1036,#1033,#1038,.T.);
#924=EDGE_CURVE('',#982,#1020,#1039,.T.);
#925=EDGE_CURVE('',#980,#1022,#1040,.T.);
#926=EDGE_CURVE('',#1041,#1041,#1042,.F.);
#927=EDGE_CURVE('',#986,#1016,#1043,.T.);
#928=EDGE_CURVE('',#984,#1018,#1044,.T.);
#929=EDGE_CURVE('',#1045,#1045,#1046,.F.);
#930=EDGE_CURVE('',#990,#1012,#1047,.T.);
#931=EDGE_CURVE('',#988,#1014,#1048,.T.);
#932=EDGE_CURVE('',#971,#1006,#1049,.T.);
#933=EDGE_CURVE('',#974,#1028,#1050,.T.);
#934=EDGE_CURVE('',#976,#1026,#1051,.T.);
#935=EDGE_CURVE('',#978,#1024,#1052,.T.);
#936=EDGE_CURVE('',#1053,#1053,#1054,.F.);
#937=EDGE_CURVE('',#1055,#1034,#1056,.T.);
#938=EDGE_CURVE('',#1033,#1055,#1057,.F.);
#939=EDGE_CURVE('',#1058,#1058,#1059,.F.);
#940=EDGE_CURVE('',#1060,#1060,#1061,.F.);
#941=EDGE_CURVE('',#1034,#1062,#1063,.F.);
#942=EDGE_CURVE('',#1062,#1033,#1064,.T.);
#943=EDGE_CURVE('',#1065,#1065,#1066,.T.);
#944=EDGE_CURVE('',#1067,#1067,#1068,.T.);
#945=EDGE_CURVE('',#1069,#1069,#1070,.T.);
#946=EDGE_CURVE('',#1071,#1071,#1072,.T.);
#947=EDGE_CURVE('',#1073,#1073,#1074,.T.);
#948=EDGE_CURVE('',#1075,#1075,#1076,.T.);
#949=EDGE_CURVE('',#1077,#1077,#1078,.F.);
#950=EDGE_CURVE('',#1079,#1079,#1080,.F.);
#951=EDGE_CURVE('',#1081,#1081,#1082,.T.);
#952=EDGE_CURVE('',#1083,#1083,#1084,.T.);
#953=VERTEX_POINT('',#1085);
#954=CIRCLE('',#1086,2.1);
#955=VERTEX_POINT('',#1090);
#956=CIRCLE('',#1091,2.1);
#957=VERTEX_POINT('',#1095);
#958=VERTEX_POINT('',#1096);
#959=LINE('',#1097,#1098);
#960=VERTEX_POINT('',#1100);
#961=LINE('',#1101,#1102);
#962=VERTEX_POINT('',#1104);
#963=LINE('',#1105,#1106);
#964=LINE('',#1108,#1109);
#965=VERTEX_POINT('',#1111);
#966=CIRCLE('',#1112,4.7);
#967=VERTEX_POINT('',#1116);
#968=CIRCLE('',#1117,4.7);
#969=VERTEX_POINT('',#1121);
#970=CIRCLE('',#1122,1.25);
#971=VERTEX_POINT('',#1126);
#972=VERTEX_POINT('',#1127);
#973=CIRCLE('',#1128,20.);
#974=VERTEX_POINT('',#1132);
#975=LINE('',#1133,#1134);
#976=VERTEX_POINT('',#1136);
#977=CIRCLE('',#1137,3.);
#978=VERTEX_POINT('',#1141);
#979=LINE('',#1142,#1143);
#980=VERTEX_POINT('',#1145);
#981=CIRCLE('',#1146,3.);
#982=VERTEX_POINT('',#1150);
#983=LINE('',#1151,#1152);
#984=VERTEX_POINT('',#1154);
#985=CIRCLE('',#1155,3.00000000000001);
#986=VERTEX_POINT('',#1159);
#987=LINE('',#1160,#1161);
#988=VERTEX_POINT('',#1163);
#989=CIRCLE('',#1164,3.);
#990=VERTEX_POINT('',#1168);
#991=LINE('',#1169,#1170);
#992=VERTEX_POINT('',#1172);
#993=CIRCLE('',#1173,20.);
#994=VERTEX_POINT('',#1177);
#995=LINE('',#1178,#1179);
#996=CIRCLE('',#1181,3.);
#997=VERTEX_POINT('',#1185);
#998=CIRCLE('',#1186,3.);
#999=LINE('',#1190,#1191);
#1000=VERTEX_POINT('',#1193);
#1001=LINE('',#1194,#1195);
#1002=VERTEX_POINT('',#1197);
#1003=LINE('',#1198,#1199);
#1004=LINE('',#1201,#1202);
#1005=VERTEX_POINT('',#1204);
#1006=VERTEX_POINT('',#1205);
#1007=CIRCLE('',#1206,20.);
#1008=VERTEX_POINT('',#1210);
#1009=LINE('',#1211,#1212);
#1010=CIRCLE('',#1214,3.);
#1011=CIRCLE('',#1218,3.);
#1012=VERTEX_POINT('',#1222);
#1013=CIRCLE('',#1223,20.);
#1014=VERTEX_POINT('',#1227);
#1015=LINE('',#1228,#1229);
#1016=VERTEX_POINT('',#1231);
#1017=CIRCLE('',#1232,3.);
#1018=VERTEX_POINT('',#1236);
#1019=LINE('',#1237,#1238);
#1020=VERTEX_POINT('',#1240);
#1021=CIRCLE('',#1241,3.00000000000001);
#1022=VERTEX_POINT('',#1245);
#1023=LINE('',#1246,#1247);
#1024=VERTEX_POINT('',#1249);
#1025=CIRCLE('',#1250,3.);
#1026=VERTEX_POINT('',#1254);
#1027=LINE('',#1255,#1256);
#1028=VERTEX_POINT('',#1258);
#1029=CIRCLE('',#1259,3.00000000000001);
#1030=LINE('',#1263,#1264);
#1031=LINE('',#1266,#1267);
#1032=LINE('',#1269,#1270);
#1033=VERTEX_POINT('',#1272);
#1034=VERTEX_POINT('',#1273);
#1035=B_SPLINE_CURVE_WITH_KNOTS('',3,
(#1274,#1275,#1276,#1277,#1278,#1279,#1280,#1281,#1282,#1283,#1284,#1285,#1286,#1287,
#1288,#1289,#1290,#1291,#1292,#1293,#1294,#1295,#1296,#1297,#1298,#1299,#1300,#1301,
#1302,#1303,#1304,#1305,#1306,#1307,#1308),
.UNSPECIFIED.,.F.,.F.,
(4,1,1,1,1,1,1,1,1,1,1,1,1,1,1,1,1,1,1,1,1,1,1,1,1,1,1,1,1,1,1,1,4),
(0.,0.00103577953662254,0.00297045605769688,0.00701578955155789,0.0158078927177626,
0.0330082594261088,0.0632490040299945,0.105301728182675,0.153619413836607,0.199265451012792,
0.240818892487933,0.279250521105999,0.317599782677974,0.355833895996821,0.393974726700763,
0.43203036957795,0.470047459792357,0.500007276565429,0.508045283277474,0.54604315737842,
0.584041044985588,0.622038779150153,0.660110511580712,0.698330752632209,0.741217422310432,
0.788583912125327,0.840246052129332,0.886872235608213,0.922293409779009,0.946627078242534,
0.964553146516746,0.982344941097842,1.),
.UNSPECIFIED.);
#1036=VERTEX_POINT('',#1309);
#1037=B_SPLINE_CURVE_WITH_KNOTS('',3,
(#1310,#1311,#1312,#1313,#1314,#1315,#1316,#1317,#1318,#1319,#1320,#1321,#1322,#1323,
#1324,#1325,#1326,#1327),
.UNSPECIFIED.,.F.,.F.,
(4,1,1,1,1,1,1,1,1,1,1,1,1,1,1,4),
(0.,0.0379804537597539,0.0759782161153774,0.113987024351564,0.164664791825573,0.236442741623562,
0.329482791186488,0.431259870143276,0.533925483713491,0.635999393323659,0.735999052891232,
0.821485884512394,0.892146886359019,0.939247238346198,0.974639557205506,1.),
.UNSPECIFIED.);
#1038=B_SPLINE_CURVE_WITH_KNOTS('',3,
(#1328,#1329,#1330,#1331,#1332,#1333,#1334,#1335,#1336,#1337,#1338,#1339,#1340,#1341,
#1342,#1343,#1344,#1345),
.UNSPECIFIED.,.F.,.F.,
(4,1,1,1,1,1,1,1,1,1,1,1,1,1,1,4),
(0.,0.0379804537494032,0.0759782160940194,0.1139870243272,0.164664791875529,0.236442741718426,
0.329482790768483,0.431259870447322,0.53392548632097,0.635999383534177,0.735999048969591,
0.821485943133889,0.892146850895704,0.939246986436388,0.974639067377411,1.),
.UNSPECIFIED.);
#1039=LINE('',#1346,#1347);
#1040=LINE('',#1349,#1350);
#1041=VERTEX_POINT('',#1352);
#1042=CIRCLE('',#1353,4.7);
#1043=LINE('',#1357,#1358);
#1044=LINE('',#1360,#1361);
#1045=VERTEX_POINT('',#1363);
#1046=CIRCLE('',#1364,4.7);
#1047=LINE('',#1368,#1369);
#1048=LINE('',#1371,#1372);
#1049=LINE('',#1374,#1375);
#1050=LINE('',#1377,#1378);
#1051=LINE('',#1380,#1381);
#1052=LINE('',#1383,#1384);
#1053=VERTEX_POINT('',#1386);
#1054=CIRCLE('',#1387,4.7);
#1055=VERTEX_POINT('',#1391);
#1056=B_SPLINE_CURVE_WITH_KNOTS('',3,
(#1392,#1393,#1394,#1395,#1396,#1397,#1398,#1399,#1400,#1401,#1402,#1403,#1404,#1405,
#1406,#1407,#1408,#1409,#1410,#1411,#1412,#1413,#1414,#1415,#1416,#1417,#1418,#1419,
#1420,#1421,#1422,#1423,#1424,#1425,#1426,#1427,#1428,#1429,#1430,#1431),
.UNSPECIFIED.,.F.,.F.,
(4,1,1,1,1,1,1,1,1,1,1,1,1,1,1,1,1,1,1,1,1,1,1,1,1,1,1,1,1,1,1,1,1,1,1,1,1,4),
(0.,0.000764308375849127,0.00148891265217969,0.00213070034664566,0.00271003077751551,
0.00339163722481513,0.0043037703791238,0.0052280745315205,0.00604723370512533,0.00692520806097839,
0.00785905003572994,0.00884053753941139,0.0100968457195909,0.0119585303948287,0.0148008314496907,
0.0183994930241502,0.0233412724290101,0.0297143961604444,0.0386457577745235,0.0503213852649471,
0.0669557011193526,0.0889504777154337,0.113350826604352,0.137473818607043,0.170426238160171,
0.210111977075775,0.256527371101187,0.301993414701916,0.350666088509137,0.405920662186767,
0.464550434752845,0.547571273872622,0.650295005653389,0.751704022565933,0.830781672098743,
0.888015295411054,0.944421106458923,1.),
.UNSPECIFIED.);
#1057=B_SPLINE_CURVE_WITH_KNOTS('',3,
(#1432,#1433,#1434,#1435,#1436,#1437,#1438,#1439,#1440,#1441,#1442,#1443,#1444,#1445,
#1446,#1447,#1448,#1449,#1450,#1451,#1452,#1453,#1454,#1455,#1456,#1457,#1458,#1459,
#1460,#1461,#1462,#1463,#1464,#1465,#1466,#1467,#1468,#1469,#1470,#1471),
.UNSPECIFIED.,.F.,.F.,
(4,1,1,1,1,1,1,1,1,1,1,1,1,1,1,1,1,1,1,1,1,1,1,1,1,1,1,1,1,1,1,1,1,1,1,1,1,4),
(0.,0.000764308375842353,0.00148891265216642,0.00213070034662661,0.00271003077749148,
0.00339163722478477,0.00430377037908485,0.00522807453147371,0.00604723370507874,
0.00692520806092598,0.00785905003564925,0.00884053753926717,0.0100968457194285,0.0119585303949963,
0.0148008314505049,0.0183994930245057,0.0233412724017831,0.0297143961164591,0.0386457577587861,
0.0503213852588541,0.0669557011190857,0.088950477660803,0.113350826792411,0.137473819184363,
0.170426239935472,0.210111956759024,0.256527305487024,0.301993256448477,0.350665814101519,
0.405920247701552,0.464549879676047,0.547570576595479,0.650294259385549,0.751703324835204,
0.830781122250333,0.888014916218907,0.944420920669466,1.),
.UNSPECIFIED.);
#1058=VERTEX_POINT('',#1472);
#1059=CIRCLE('',#1473,1.25);
#1060=VERTEX_POINT('',#1477);
#1061=CIRCLE('',#1478,1.25);
#1062=VERTEX_POINT('',#1482);
#1063=B_SPLINE_CURVE_WITH_KNOTS('',3,
(#1483,#1484,#1485,#1486,#1487,#1488,#1489,#1490,#1491,#1492,#1493,#1494,#1495,#1496,
#1497,#1498,#1499,#1500,#1501,#1502,#1503,#1504,#1505,#1506,#1507,#1508,#1509,#1510,
#1511,#1512,#1513,#1514,#1515,#1516,#1517,#1518,#1519,#1520,#1521,#1522),
.UNSPECIFIED.,.F.,.F.,
(4,1,1,1,1,1,1,1,1,1,1,1,1,1,1,1,1,1,1,1,1,1,1,1,1,1,1,1,1,1,1,1,1,1,1,1,1,4),
(0.,0.000764308375776193,0.00148891265174532,0.00213070034538117,0.00271003077723511,
0.00339163722062113,0.00430377037064616,0.00522807452113235,0.00604723370536384,
0.00692520808178092,0.00785905005504644,0.00884053755476484,0.0100968460171325,0.0119585304962412,
0.01480083203726,0.0183994951537347,0.0233412784718268,0.0297144094074574,0.0386457845726274,
0.0503214325751362,0.0669557819668545,0.0889506065158258,0.113351012133293,0.137474062248989,
0.170426564279157,0.210112365395781,0.256527801407609,0.301993809045155,0.350666417070346,
0.405920880963121,0.4645505294606,0.547571215070427,0.650294837506623,0.751703807622498,
0.830781488781185,0.888015170544933,0.944421052764734,1.),
.UNSPECIFIED.);
#1064=B_SPLINE_CURVE_WITH_KNOTS('',3,
(#1523,#1524,#1525,#1526,#1527,#1528,#1529,#1530,#1531,#1532,#1533,#1534,#1535,#1536,
#1537,#1538,#1539,#1540,#1541,#1542,#1543,#1544,#1545,#1546,#1547,#1548,#1549,#1550,
#1551,#1552,#1553,#1554,#1555,#1556,#1557,#1558,#1559,#1560),
.UNSPECIFIED.,.F.,.F.,
(4,1,1,1,1,1,1,1,1,1,1,1,1,1,1,1,1,1,1,1,1,1,1,1,1,1,1,1,1,1,1,1,1,1,1,4),
(0.,0.000814671715570895,0.00167913841699549,0.00265292308466073,0.00379835251063875,
0.00509586769883774,0.00624394627340292,0.00716134688983386,0.00796100598037128,
0.00889333797195184,0.0105428222973005,0.0124251207709909,0.0145469515377208,0.0171457812180284,
0.0200063885780532,0.023127714369819,0.0273813284788011,0.0338815610373075,0.0442506007640046,
0.0578560308913325,0.0728373809954131,0.0875745904980183,0.107584004053017,0.131782540171976,
0.160167273642186,0.198987194478035,0.244456726293617,0.296571922626823,0.362778367308373,
0.453952283408588,0.569816415797843,0.687176157559142,0.798692769613926,0.886099257602715,
0.952319016796636,1.),
.UNSPECIFIED.);
#1065=VERTEX_POINT('',#1561);
#1066=CIRCLE('',#1562,4.7);
#1067=VERTEX_POINT('',#1566);
#1068=CIRCLE('',#1567,4.7);
#1069=VERTEX_POINT('',#1571);
#1070=CIRCLE('',#1572,4.7);
#1071=VERTEX_POINT('',#1576);
#1072=CIRCLE('',#1577,2.1);
#1073=VERTEX_POINT('',#1581);
#1074=CIRCLE('',#1582,1.25);
#1075=VERTEX_POINT('',#1586);
#1076=CIRCLE('',#1587,2.1);
#1077=VERTEX_POINT('',#1591);
#1078=CIRCLE('',#1592,2.1);
#1079=VERTEX_POINT('',#1596);
#1080=CIRCLE('',#1597,2.1);
#1081=VERTEX_POINT('',#1601);
#1082=CIRCLE('',#1602,2.1);
#1083=VERTEX_POINT('',#1606);
#1084=CIRCLE('',#1607,2.1);
#1085=CARTESIAN_POINT('',(-2.1,15.,-5.14351655641888E-16));
#1086=AXIS2_PLACEMENT_3D('',#1087,#1088,#1089);
#1087=CARTESIAN_POINT('',(0.,15.,0.));
#1088=DIRECTION('',(0.,1.,0.));
#1089=DIRECTION('',(-1.,0.,-1.22464679914735E-16));
#1090=CARTESIAN_POINT('',(-2.1,10.,-5.14351655641888E-16));
#1091=AXIS2_PLACEMENT_3D('',#1092,#1093,#1094);
#1092=CARTESIAN_POINT('',(0.,10.,0.));
#1093=DIRECTION('',(0.,1.,0.));
#1094=DIRECTION('',(-1.,0.,-1.22464679914735E-16));
#1095=CARTESIAN_POINT('',(6.,21.,-6.));
#1096=CARTESIAN_POINT('',(6.,21.,6.));
#1097=CARTESIAN_POINT('',(6.,21.,-6.));
#1098=VECTOR('',#1099,1.);
#1099=DIRECTION('',(0.,0.,1.));
#1100=CARTESIAN_POINT('',(-6.,21.,-6.));
#1101=CARTESIAN_POINT('',(6.,21.,-6.));
#1102=VECTOR('',#1103,1.);
#1103=DIRECTION('',(-1.,0.,0.));
#1104=CARTESIAN_POINT('',(-6.,21.,6.));
#1105=CARTESIAN_POINT('',(-6.,21.,-6.));
#1106=VECTOR('',#1107,1.);
#1107=DIRECTION('',(7.40148683083438E-17,0.,1.));
#1108=CARTESIAN_POINT('',(6.,21.,6.));
#1109=VECTOR('',#1110,1.);
#1110=DIRECTION('',(-1.,0.,-7.40148683083438E-17));
#1111=CARTESIAN_POINT('',(-4.7,21.,-1.15116799119851E-15));
#1112=AXIS2_PLACEMENT_3D('',#1113,#1114,#1115);
#1113=CARTESIAN_POINT('',(0.,21.,0.));
#1114=DIRECTION('',(0.,1.,0.));
#1115=DIRECTION('',(-1.,0.,-1.22464679914735E-16));
#1116=CARTESIAN_POINT('',(-4.7,15.,-1.15116799119851E-15));
#1117=AXIS2_PLACEMENT_3D('',#1118,#1119,#1120);
#1118=CARTESIAN_POINT('',(0.,15.,0.));
#1119=DIRECTION('',(0.,1.,0.));
#1120=DIRECTION('',(-1.,0.,-1.22464679914735E-16));
#1121=CARTESIAN_POINT('',(-1.25,10.,0.));
#1122=AXIS2_PLACEMENT_3D('',#1123,#1124,#1125);
#1123=CARTESIAN_POINT('',(0.,10.,0.));
#1124=DIRECTION('',(0.,-1.,0.));
#1125=DIRECTION('',(-1.,0.,-1.22464679914735E-16));
#1126=CARTESIAN_POINT('',(10.5511802339738,-36.0645398506572,-6.));
#1127=CARTESIAN_POINT('',(8.99999999999999,-28.3417780881346,-6.));
#1128=AXIS2_PLACEMENT_3D('',#1129,#1130,#1131);
#1129=CARTESIAN_POINT('',(29.,-28.3417780881346,-6.));
#1130=DIRECTION('',(0.,0.,1.));
#1131=DIRECTION('',(-1.,1.77635683940025E-16,0.));
#1132=CARTESIAN_POINT('',(26.3910735997211,-73.9042851132757,-6.));
#1133=CARTESIAN_POINT('',(26.3910735997211,-73.9042851132757,-6.));
#1134=VECTOR('',#1135,1.);
#1135=DIRECTION('',(-0.386138088126129,0.92244098830131,0.));
#1136=CARTESIAN_POINT('',(24.7821648991955,-77.830022342558,-6.));
#1137=AXIS2_PLACEMENT_3D('',#1138,#1139,#1140);
#1138=CARTESIAN_POINT('',(23.6237506348171,-75.0626993776541,-6.));
#1139=DIRECTION('',(0.,0.,-1.));
#1140=DIRECTION('',(0.922440988301311,0.386138088126127,0.));
#1141=CARTESIAN_POINT('',(14.2687126234204,-82.2310023649755,-6.));
#1142=CARTESIAN_POINT('',(14.2687126234204,-82.2310023649755,-6.));
#1143=VECTOR('',#1144,1.);
#1144=DIRECTION('',(0.92244098830131,0.386138088126129,0.));
#1145=CARTESIAN_POINT('',(13.110298359042,-82.4636794000716,-6.));
#1146=AXIS2_PLACEMENT_3D('',#1147,#1148,#1149);
#1147=CARTESIAN_POINT('',(13.110298359042,-79.4636794000716,-6.));
#1148=DIRECTION('',(0.,0.,-1.));
#1149=DIRECTION('',(0.386138088126129,-0.92244098830131,0.));
#1150=CARTESIAN_POINT('',(-13.110298359042,-82.4636794000714,-6.));
#1151=CARTESIAN_POINT('',(-13.110298359042,-82.4636794000715,-6.));
#1152=VECTOR('',#1153,1.);
#1153=DIRECTION('',(1.,-4.87775674260718E-15,0.));
#1154=CARTESIAN_POINT('',(-14.2687126234204,-82.2310023649754,-6.));
#1155=AXIS2_PLACEMENT_3D('',#1156,#1157,#1158);
#1156=CARTESIAN_POINT('',(-13.110298359042,-79.4636794000714,-6.));
#1157=DIRECTION('',(0.,0.,-1.));
#1158=DIRECTION('',(-4.73695157173398E-15,-1.,0.));
#1159=CARTESIAN_POINT('',(-24.7821648991955,-77.8300223425579,-6.));
#1160=CARTESIAN_POINT('',(-24.7821648991955,-77.8300223425579,-6.));
#1161=VECTOR('',#1162,1.);
#1162=DIRECTION('',(0.92244098830131,-0.38613808812613,0.));
#1163=CARTESIAN_POINT('',(-26.391073599721,-73.9042851132756,-6.));
#1164=AXIS2_PLACEMENT_3D('',#1165,#1166,#1167);
#1165=CARTESIAN_POINT('',(-23.6237506348171,-75.062699377654,-6.));
#1166=DIRECTION('',(0.,0.,-1.));
#1167=DIRECTION('',(-0.386138088126131,-0.922440988301309,0.));
#1168=CARTESIAN_POINT('',(-10.5511802339738,-36.0645398506573,-6.));
#1169=CARTESIAN_POINT('',(-10.5511802339738,-36.0645398506573,-6.));
#1170=VECTOR('',#1171,1.);
#1171=DIRECTION('',(-0.38613808812613,-0.92244098830131,0.));
#1172=CARTESIAN_POINT('',(-9.00000000000001,-28.3417780881347,-6.));
#1173=AXIS2_PLACEMENT_3D('',#1174,#1175,#1176);
#1174=CARTESIAN_POINT('',(-29.,-28.3417780881347,-6.));
#1175=DIRECTION('',(0.,0.,1.));
#1176=DIRECTION('',(0.92244098830131,-0.38613808812613,0.));
#1177=CARTESIAN_POINT('',(-9.,18.,-6.));
#1178=CARTESIAN_POINT('',(-9.,18.,-6.));
#1179=VECTOR('',#1180,1.);
#1180=DIRECTION('',(-1.53326601842674E-16,-1.,0.));
#1181=AXIS2_PLACEMENT_3D('',#1182,#1183,#1184);
#1182=CARTESIAN_POINT('',(-6.,18.,-6.));
#1183=DIRECTION('',(0.,0.,-1.));
#1184=DIRECTION('',(-1.,0.,0.));
#1185=CARTESIAN_POINT('',(9.,18.,-6.));
#1186=AXIS2_PLACEMENT_3D('',#1187,#1188,#1189);
#1187=CARTESIAN_POINT('',(6.,18.,-6.));
#1188=DIRECTION('',(0.,0.,-1.));
#1189=DIRECTION('',(2.96059473233375E-16,1.,0.));
#1190=CARTESIAN_POINT('',(8.99999999999999,-28.3417780881346,-6.));
#1191=VECTOR('',#1192,1.);
#1192=DIRECTION('',(1.14994951382006E-16,1.,0.));
#1193=CARTESIAN_POINT('',(-9.00000000000001,-28.3417780881347,5.99999999999999));
#1194=CARTESIAN_POINT('',(-9.00000000000001,-28.3417780881347,-6.));
#1195=VECTOR('',#1196,1.);
#1196=DIRECTION('',(0.,0.,1.));
#1197=CARTESIAN_POINT('',(-9.,18.,6.));
#1198=CARTESIAN_POINT('',(-9.,18.,6.));
#1199=VECTOR('',#1200,1.);
#1200=DIRECTION('',(-1.53326601842674E-16,-1.,0.));
#1201=CARTESIAN_POINT('',(-9.,18.,-6.));
#1202=VECTOR('',#1203,1.);
#1203=DIRECTION('',(0.,0.,1.));
#1204=CARTESIAN_POINT('',(8.99999999999999,-28.3417780881346,5.99999999999999));
#1205=CARTESIAN_POINT('',(10.5511802339738,-36.0645398506572,5.99999999999999));
#1206=AXIS2_PLACEMENT_3D('',#1207,#1208,#1209);
#1207=CARTESIAN_POINT('',(29.,-28.3417780881346,6.));
#1208=DIRECTION('',(0.,0.,-1.));
#1209=DIRECTION('',(-0.92244098830131,-0.386138088126129,0.));
#1210=CARTESIAN_POINT('',(9.,18.,6.));
#1211=CARTESIAN_POINT('',(8.99999999999999,-28.3417780881346,6.));
#1212=VECTOR('',#1213,1.);
#1213=DIRECTION('',(1.53326601842675E-16,1.,0.));
#1214=AXIS2_PLACEMENT_3D('',#1215,#1216,#1217);
#1215=CARTESIAN_POINT('',(6.,18.,6.));
#1216=DIRECTION('',(0.,0.,1.));
#1217=DIRECTION('',(1.,4.736951571734E-15,0.));
#1218=AXIS2_PLACEMENT_3D('',#1219,#1220,#1221);
#1219=CARTESIAN_POINT('',(-6.,18.,6.));
#1220=DIRECTION('',(0.,0.,1.));
#1221=DIRECTION('',(2.96059473233375E-16,1.,0.));
#1222=CARTESIAN_POINT('',(-10.5511802339738,-36.0645398506573,5.99999999999999));
#1223=AXIS2_PLACEMENT_3D('',#1224,#1225,#1226);
#1224=CARTESIAN_POINT('',(-29.,-28.3417780881347,6.));
#1225=DIRECTION('',(0.,0.,-1.));
#1226=DIRECTION('',(1.,-5.32907051820075E-16,0.));
#1227=CARTESIAN_POINT('',(-26.391073599721,-73.9042851132756,6.));
#1228=CARTESIAN_POINT('',(-10.5511802339738,-36.0645398506573,6.));
#1229=VECTOR('',#1230,1.);
#1230=DIRECTION('',(-0.38613808812613,-0.92244098830131,0.));
#1231=CARTESIAN_POINT('',(-24.7821648991955,-77.8300223425579,6.));
#1232=AXIS2_PLACEMENT_3D('',#1233,#1234,#1235);
#1233=CARTESIAN_POINT('',(-23.6237506348171,-75.062699377654,6.));
#1234=DIRECTION('',(0.,0.,1.));
#1235=DIRECTION('',(-0.922440988301307,0.386138088126136,0.));
#1236=CARTESIAN_POINT('',(-14.2687126234204,-82.2310023649754,6.));
#1237=CARTESIAN_POINT('',(-24.7821648991955,-77.8300223425579,6.));
#1238=VECTOR('',#1239,1.);
#1239=DIRECTION('',(0.92244098830131,-0.38613808812613,0.));
#1240=CARTESIAN_POINT('',(-13.110298359042,-82.4636794000714,6.));
#1241=AXIS2_PLACEMENT_3D('',#1242,#1243,#1244);
#1242=CARTESIAN_POINT('',(-13.110298359042,-79.4636794000714,6.));
#1243=DIRECTION('',(0.,0.,1.));
#1244=DIRECTION('',(-0.386138088126128,-0.922440988301311,0.));
#1245=CARTESIAN_POINT('',(13.110298359042,-82.4636794000716,6.));
#1246=CARTESIAN_POINT('',(-13.110298359042,-82.4636794000715,6.));
#1247=VECTOR('',#1248,1.);
#1248=DIRECTION('',(1.,-4.87775674260718E-15,0.));
#1249=CARTESIAN_POINT('',(14.2687126234204,-82.2310023649755,6.));
#1250=AXIS2_PLACEMENT_3D('',#1251,#1252,#1253);
#1251=CARTESIAN_POINT('',(13.110298359042,-79.4636794000716,6.));
#1252=DIRECTION('',(0.,0.,1.));
#1253=DIRECTION('',(-3.5527136788005E-15,-1.,0.));
#1254=CARTESIAN_POINT('',(24.7821648991955,-77.830022342558,6.));
#1255=CARTESIAN_POINT('',(14.2687126234204,-82.2310023649755,6.));
#1256=VECTOR('',#1257,1.);
#1257=DIRECTION('',(0.92244098830131,0.386138088126129,-7.79279876643257E-17));
#1258=CARTESIAN_POINT('',(26.3910735997211,-73.9042851132757,6.));
#1259=AXIS2_PLACEMENT_3D('',#1260,#1261,#1262);
#1260=CARTESIAN_POINT('',(23.6237506348171,-75.0626993776541,6.));
#1261=DIRECTION('',(0.,0.,1.));
#1262=DIRECTION('',(0.386138088126127,-0.922440988301311,0.));
#1263=CARTESIAN_POINT('',(26.3910735997211,-73.9042851132757,6.));
#1264=VECTOR('',#1265,1.);
#1265=DIRECTION('',(-0.386138088126129,0.92244098830131,0.));
#1266=CARTESIAN_POINT('',(8.99999999999999,-28.3417780881346,-6.));
#1267=VECTOR('',#1268,1.);
#1268=DIRECTION('',(0.,0.,1.));
#1269=CARTESIAN_POINT('',(9.,18.,-6.));
#1270=VECTOR('',#1271,1.);
#1271=DIRECTION('',(0.,-2.96059473233375E-16,1.));
#1272=CARTESIAN_POINT('',(7.8076990605547E-8,-1.90961887192032E-7,-1.24999999999998));
#1273=CARTESIAN_POINT('',(-3.77418517103151E-7,-9.71886022455035E-9,1.24999999999972));
#1274=CARTESIAN_POINT('',(2.87569829792688E-7,7.40527106302125E-9,-1.24999999999997));
#1275=CARTESIAN_POINT('',(0.00134930348446963,1.7372141336319E-5,-1.25000000099543));
#1276=CARTESIAN_POINT('',(0.00522008582995361,6.71993542122275E-5,-1.24999373474292));
#1277=CARTESIAN_POINT('',(0.0143743923008752,0.00018505056023824,-1.24993639488584));
#1278=CARTESIAN_POINT('',(0.0336904243140484,0.000433725076410987,-1.24963450586919));
#1279=CARTESIAN_POINT('',(0.0730219579426173,0.000940114896301669,-1.24822566248503));
#1280=CARTESIAN_POINT('',(0.146396990445537,0.00188493376653037,-1.24259108917481));
#1281=CARTESIAN_POINT('',(0.262373036490828,0.00337866656905579,-1.22493013455416));
#1282=CARTESIAN_POINT('',(0.415062863514704,0.00534597179560322,-1.18354025503903));
#1283=CARTESIAN_POINT('',(0.579065649683164,0.00745996159101318,-1.11291317580049));
#1284=CARTESIAN_POINT('',(0.730285621708718,0.00941000872743155,-1.0193094041522));
#1285=CARTESIAN_POINT('',(0.857259426660952,0.0110479791768428,-0.914250347708062));
#1286=CARTESIAN_POINT('',(0.96348395418303,0.0124186876788345,-0.801120045076582));
#1287=CARTESIAN_POINT('',(1.05274998812718,0.0135708544453785,-0.679539098591026));
#1288=CARTESIAN_POINT('',(1.12659220985787,0.0145241464677761,-0.548456736914105));
#1289=CARTESIAN_POINT('',(1.18406726853857,0.0152662675458588,-0.409834581884749));
#1290=CARTESIAN_POINT('',(1.22450159181475,0.0157884242156799,-0.265615491334781));
#1291=CARTESIAN_POINT('',(1.24580959214531,0.0160636119209236,-0.128206214041919));
#1292=CARTESIAN_POINT('',(1.25049521752225,0.0161241272373775,-0.0286971780365816));
#1293=CARTESIAN_POINT('',(1.24923922656579,0.0161079060944811,0.0707865048335288));
#1294=CARTESIAN_POINT('',(1.23989017788636,0.0159871622136941,0.18059136682454));
#1295=CARTESIAN_POINT('',(1.20955740518607,0.0155954331009057,0.326972520569768));
#1296=CARTESIAN_POINT('',(1.16197675249157,0.0149810205731663,0.468790918990731));
#1297=CARTESIAN_POINT('',(1.0977034480392,0.0141511752190594,0.604189804402221));
#1298=CARTESIAN_POINT('',(1.01428193009732,0.013074305765078,0.736354693610084));
#1299=CARTESIAN_POINT('',(0.906933208253088,0.0116888972028093,0.866304602639201));
#1300=CARTESIAN_POINT('',(0.769190345933881,0.00991179099893852,0.991720631083044));
#1301=CARTESIAN_POINT('',(0.609493888874207,0.00785226576101602,1.09703775920022));
#1302=CARTESIAN_POINT('',(0.449890394977598,0.00579484995120028,1.16996894850862));
#1303=CARTESIAN_POINT('',(0.316628046906284,0.0040776702134303,1.21115396759903));
#1304=CARTESIAN_POINT('',(0.217036162180991,0.00279473750192466,1.23195300454023));
#1305=CARTESIAN_POINT('',(0.13917812771498,0.00179199059520723,1.24288758882826));
#1306=CARTESIAN_POINT('',(0.0695320258781223,0.000895166200827716,1.2487114071569));
#1307=CARTESIAN_POINT('',(0.023121144054818,0.000297649896886106,1.25000078466668));
#1308=CARTESIAN_POINT('',(1.81501385292904E-7,8.15804668263809E-9,1.24999999999999));
#1309=CARTESIAN_POINT('',(-1.25,0.016117731488011,-8.0784140498976E-16));
#1310=CARTESIAN_POINT('',(-1.25,0.016117731488011,-6.54760555096341E-16));
#1311=CARTESIAN_POINT('',(-1.25000103289125,0.0161177449837374,0.0248723790546981));
#1312=CARTESIAN_POINT('',(-1.24851411824604,0.016098541143872,0.0746154749498701));
#1313=CARTESIAN_POINT('',(-1.2418414054951,0.01601236366451,0.148952357556433));
#1314=CARTESIAN_POINT('',(-1.22951200626951,0.0158531340723264,0.230964847238077));
#1315=CARTESIAN_POINT('',(-1.20669752955233,0.015558504930079,0.333546315721651));
#1316=CARTESIAN_POINT('',(-1.16292396882327,0.0149932498246505,0.467876607464833));
#1317=CARTESIAN_POINT('',(-1.08770649960773,0.0140220965540286,0.625813583872944));
#1318=CARTESIAN_POINT('',(-0.977824850514514,0.0126037304631173,0.787302946712015));
#1319=CARTESIAN_POINT('',(-0.839456186418452,0.0108182363339313,0.933454055002027));
#1320=CARTESIAN_POINT('',(-0.680415278829393,0.00876678994978012,1.05485073841535));
#1321=CARTESIAN_POINT('',(-0.514129442651322,0.00662282629485153,1.14423937821109));
#1322=CARTESIAN_POINT('',(-0.356181265411222,0.00458724673503059,1.20146124330924));
#1323=CARTESIAN_POINT('',(-0.226311399582155,0.00291417692479283,1.23117991234181));
#1324=CARTESIAN_POINT('',(-0.126878629010464,0.00163358382283475,1.24442963381873));
#1325=CARTESIAN_POINT('',(-0.0564009810271186,0.000726121155040987,1.24920638819433));
#1326=CARTESIAN_POINT('',(-0.0166131739780382,0.000213843876093203,1.25000032388292));
#1327=CARTESIAN_POINT('',(-1.40763613916727E-6,-3.62480676585619E-8,1.24999999999921));
#1328=CARTESIAN_POINT('',(-1.25,0.016117731488011,-9.6092225488318E-16));
#1329=CARTESIAN_POINT('',(-1.25000103289154,0.0161177449836181,-0.0248723790471132));
#1330=CARTESIAN_POINT('',(-1.24851411824661,0.0160985411438092,-0.0746154749355389));
#1331=CARTESIAN_POINT('',(-1.24184140549682,0.0160123636650012,-0.148952357545053));
#1332=CARTESIAN_POINT('',(-1.2295120062617,0.0158531340717494,-0.230964847286043));
#1333=CARTESIAN_POINT('',(-1.20669752953768,0.0155585049321633,-0.333546315786998));
#1334=CARTESIAN_POINT('',(-1.16292396895044,0.014993249817629,-0.467876606965835));
#1335=CARTESIAN_POINT('',(-1.087706499936,0.0140220965878304,-0.62581358373308));
#1336=CARTESIAN_POINT('',(-0.977824846841924,0.0126037303022053,-0.787302951398548));
#1337=CARTESIAN_POINT('',(-0.839456196001643,0.0108182368757708,-0.933454043662982));
#1338=CARTESIAN_POINT('',(-0.680415290567559,0.00876678856356726,-1.05485073607147));
#1339=CARTESIAN_POINT('',(-0.514129346350781,0.00662283032468475,-1.14423942141852));
#1340=CARTESIAN_POINT('',(-0.356181349429481,0.00458723248105002,-1.20146120958156));
#1341=CARTESIAN_POINT('',(-0.226311667985443,0.00291422047764947,-1.23117986050539));
#1342=CARTESIAN_POINT('',(-0.126878921080854,0.00163350141036638,-1.24442960377564));
#1343=CARTESIAN_POINT('',(-0.0564007870751004,0.000726327884091174,-1.24920640820474));
#1344=CARTESIAN_POINT('',(-0.0166124506072848,0.000213512726716499,-1.25000033989169));
#1345=CARTESIAN_POINT('',(-1.92141082256435E-7,-7.76837802973773E-7,-1.24999999999999));
#1346=CARTESIAN_POINT('',(-13.110298359042,-82.4636794000714,-6.));
#1347=VECTOR('',#1348,1.);
#1348=DIRECTION('',(0.,0.,1.));
#1349=CARTESIAN_POINT('',(13.110298359042,-82.4636794000716,-6.));
#1350=VECTOR('',#1351,1.);
#1351=DIRECTION('',(-1.48029736616688E-16,0.,1.));
#1352=CARTESIAN_POINT('',(-4.70000000000038,-82.4636794000715,1.15116799119851E-15));
#1353=AXIS2_PLACEMENT_3D('',#1354,#1355,#1356);
#1354=CARTESIAN_POINT('',(-3.85469434149854E-13,-82.4636794000715,0.));
#1355=DIRECTION('',(-4.66341707050244E-15,-1.,0.));
#1356=DIRECTION('',(-1.,4.66341707050244E-15,1.22464679914735E-16));
#1357=CARTESIAN_POINT('',(-24.7821648991955,-77.8300223425579,-6.));
#1358=VECTOR('',#1359,1.);
#1359=DIRECTION('',(0.,0.,1.));
#1360=CARTESIAN_POINT('',(-14.2687126234204,-82.2310023649754,-6.));
#1361=VECTOR('',#1362,1.);
#1362=DIRECTION('',(0.,0.,1.));
#1363=CARTESIAN_POINT('',(-23.5829916144038,-78.3320018571219,-4.64514818781008E-16));
#1364=AXIS2_PLACEMENT_3D('',#1365,#1366,#1367);
#1365=CARTESIAN_POINT('',(-19.2475189693877,-80.1468508713147,-1.77635683940025E-15));
#1366=DIRECTION('',(-0.386138088126131,-0.922440988301309,0.));
#1367=DIRECTION('',(-0.92244098830131,0.386138088126131,1.22464679914735E-16));
#1368=CARTESIAN_POINT('',(-10.5511802339738,-36.0645398506573,-6.));
#1369=VECTOR('',#1370,1.);
#1370=DIRECTION('',(0.,0.,1.));
#1371=CARTESIAN_POINT('',(-26.391073599721,-73.9042851132756,-6.));
#1372=VECTOR('',#1373,1.);
#1373=DIRECTION('',(0.,0.,1.));
#1374=CARTESIAN_POINT('',(10.5511802339738,-36.0645398506572,-6.));
#1375=VECTOR('',#1376,1.);
#1376=DIRECTION('',(0.,0.,1.));
#1377=CARTESIAN_POINT('',(26.3910735997211,-73.9042851132757,-6.));
#1378=VECTOR('',#1379,1.);
#1379=DIRECTION('',(0.,0.,1.));
#1380=CARTESIAN_POINT('',(24.7821648991955,-77.830022342558,-6.));
#1381=VECTOR('',#1382,1.);
#1382=DIRECTION('',(-2.96059473233375E-16,0.,1.));
#1383=CARTESIAN_POINT('',(14.2687126234204,-82.2310023649755,-6.));
#1384=VECTOR('',#1385,1.);
#1385=DIRECTION('',(0.,0.,1.));
#1386=CARTESIAN_POINT('',(14.9120463243715,-81.9616998855076,2.76685080117802E-15));
#1387=AXIS2_PLACEMENT_3D('',#1388,#1389,#1390);
#1388=CARTESIAN_POINT('',(19.2475189693876,-80.1468508713148,1.77635683940025E-15));
#1389=DIRECTION('',(0.386138088126129,-0.92244098830131,0.));
#1390=DIRECTION('',(-0.92244098830131,-0.386138088126129,1.22464679914735E-16));
#1391=CARTESIAN_POINT('',(-1.25,-26.5593765918679,0.));
#1392=CARTESIAN_POINT('',(-1.25000000000051,-26.5593765918678,1.52662074315945E-16));
#1393=CARTESIAN_POINT('',(-1.25000076325112,-26.5593859116647,0.00673565089356842));
#1394=CARTESIAN_POINT('',(-1.24989340028365,-26.5580647544695,0.0197120665524215));
#1395=CARTESIAN_POINT('',(-1.24946910418374,-26.5528424498746,0.0377253340851392));
#1396=CARTESIAN_POINT('',(-1.24888162427033,-26.5456101915097,0.0535386695394565));
#1397=CARTESIAN_POINT('',(-1.24815037172891,-26.5366057028818,0.0684906678802023));
#1398=CARTESIAN_POINT('',(-1.2471882690873,-26.524754920277,0.0843487192902851));
#1399=CARTESIAN_POINT('',(-1.24596985962823,-26.5097406459075,0.100788359063289));
#1400=CARTESIAN_POINT('',(-1.24455834583447,-26.4923372294382,0.116842673752759));
#1401=CARTESIAN_POINT('',(-1.24308435763331,-26.4741532055015,0.131550755027172));
#1402=CARTESIAN_POINT('',(-1.24154467704033,-26.4551478748649,0.145366404179265));
#1403=CARTESIAN_POINT('',(-1.2398584793008,-26.4343207480258,0.159104683078247));
#1404=CARTESIAN_POINT('',(-1.23790246636693,-26.4101443091415,0.173707754900404));
#1405=CARTESIAN_POINT('',(-1.23532452514423,-26.3782546366213,0.191322657516814));
#1406=CARTESIAN_POINT('',(-1.23149442741619,-26.3308201954417,0.214874984723));
#1407=CARTESIAN_POINT('',(-1.22603590891109,-26.2630961153589,0.244342022616844));
#1408=CARTESIAN_POINT('',(-1.21841228775462,-26.1682681897536,0.280151396798246));
#1409=CARTESIAN_POINT('',(-1.20830784874395,-26.042148256496,0.321220536031452));
#1410=CARTESIAN_POINT('',(-1.19447489973966,-25.8686854096134,0.369744389379498));
#1411=CARTESIAN_POINT('',(-1.17597863792303,-25.6352569214477,0.425327399113407));
#1412=CARTESIAN_POINT('',(-1.15046429620546,-25.3104240695154,0.490752510932983));
#1413=CARTESIAN_POINT('',(-1.11622990080655,-24.8692030727311,0.564902380262014));
#1414=CARTESIAN_POINT('',(-1.073860928038,-24.3137529868515,0.641903891373386));
#1415=CARTESIAN_POINT('',(-1.02731245885472,-23.6905873679766,0.713736452420798));
#1416=CARTESIAN_POINT('',(-0.974616963264346,-22.9691143726116,0.784374491420238));
#1417=CARTESIAN_POINT('',(-0.913614071661747,-22.1109518806969,0.855048022556741));
#1418=CARTESIAN_POINT('',(-0.841103826366766,-21.0538910913186,0.926652946124609));
#1419=CARTESIAN_POINT('',(-0.764341909644521,-19.8844920519488,0.990719869950966));
#1420=CARTESIAN_POINT('',(-0.686221006810392,-18.6342895972487,1.04613246204849));
#1421=CARTESIAN_POINT('',(-0.607448863721867,-17.3048449488987,1.09375476336377));
#1422=CARTESIAN_POINT('',(-0.526867983336989,-15.8576165738946,1.1347330405099));
#1423=CARTESIAN_POINT('',(-0.436089204646156,-14.103874592992,1.17293494541796));
#1424=CARTESIAN_POINT('',(-0.333993923007538,-11.9265304024704,1.20634903707928));
#1425=CARTESIAN_POINT('',(-0.230348410004152,-9.36721876785878,1.23000317742585));
#1426=CARTESIAN_POINT('',(-0.145839940137767,-6.84230409500102,1.24215932742148));
#1427=CARTESIAN_POINT('',(-0.0880652666788561,-4.72247399970017,1.24715824632856));
#1428=CARTESIAN_POINT('',(-0.049291758641187,-3.00375160407079,1.24915700020992));
#1429=CARTESIAN_POINT('',(-0.021151696871875,-1.49451448733883,1.24990674642189));
#1430=CARTESIAN_POINT('',(-0.00638141483139412,-0.495711809265184,1.24999347760761));
#1431=CARTESIAN_POINT('',(6.21273450845624E-8,5.58408856932147E-8,1.25));
#1432=CARTESIAN_POINT('',(-1.25000000000051,-26.5593765918678,-1.53499599063396E-16));
#1433=CARTESIAN_POINT('',(-1.25000076325112,-26.5593859116647,-0.00673565089356754));
#1434=CARTESIAN_POINT('',(-1.24989340028365,-26.5580647544695,-0.01971206655242));
#1435=CARTESIAN_POINT('',(-1.24946910418374,-26.5528424498746,-0.0377253340851391));
#1436=CARTESIAN_POINT('',(-1.24888162427033,-26.5456101915097,-0.0535386695394522));
#1437=CARTESIAN_POINT('',(-1.24815037172891,-26.5366057028818,-0.0684906678802064));
#1438=CARTESIAN_POINT('',(-1.2471882690873,-26.524754920277,-0.0843487192902477));
#1439=CARTESIAN_POINT('',(-1.24596985962823,-26.5097406459075,-0.100788359063297));
#1440=CARTESIAN_POINT('',(-1.24455834583447,-26.4923372294381,-0.116842673752866));
#1441=CARTESIAN_POINT('',(-1.2430843576333,-26.4741532055014,-0.131550755027088));
#1442=CARTESIAN_POINT('',(-1.24154467704032,-26.4551478748652,-0.145366404179234));
#1443=CARTESIAN_POINT('',(-1.23985847930083,-26.4343207480265,-0.15910468307801));
#1444=CARTESIAN_POINT('',(-1.23790246636698,-26.4101443091418,-0.173707754900241));
#1445=CARTESIAN_POINT('',(-1.23532452514397,-26.3782546366184,-0.191322657518626));
#1446=CARTESIAN_POINT('',(-1.23149442741551,-26.3308201954331,-0.214874984726704));
#1447=CARTESIAN_POINT('',(-1.22603590891158,-26.263096115365,-0.244342022614001));
#1448=CARTESIAN_POINT('',(-1.21841228777394,-26.1682681899939,-0.280151396708371));
#1449=CARTESIAN_POINT('',(-1.20830784878709,-26.0421482570346,-0.321220535864865));
#1450=CARTESIAN_POINT('',(-1.19447489978573,-25.8686854101939,-0.369744389232977));
#1451=CARTESIAN_POINT('',(-1.1759786379626,-25.6352569219503,-0.425327399021992));
#1452=CARTESIAN_POINT('',(-1.15046429622462,-25.3104240697624,-0.490752510806188));
#1453=CARTESIAN_POINT('',(-1.116229900832,-24.8692030730599,-0.56490238024401));
#1454=CARTESIAN_POINT('',(-1.07386092790675,-24.3137529851313,-0.641903891602236));
#1455=CARTESIAN_POINT('',(-1.02731245836746,-23.6905873614398,-0.713736453156674));
#1456=CARTESIAN_POINT('',(-0.974616961640055,-22.9691143502489,-0.784374493544504));
#1457=CARTESIAN_POINT('',(-0.913614083028364,-22.110952040125,-0.855048009076187));
#1458=CARTESIAN_POINT('',(-0.841103877334237,-21.0538918378212,-0.926652897150293));
#1459=CARTESIAN_POINT('',(-0.764342050597063,-19.8844942217386,-0.990719756734719));
#1460=CARTESIAN_POINT('',(-0.686221279639398,-18.6342940312772,-1.04613227809295));
#1461=CARTESIAN_POINT('',(-0.607449301216904,-17.3048524958016,-1.09375451543272));
#1462=CARTESIAN_POINT('',(-0.526868583753988,-15.8576276630838,-1.13473275773392));
#1463=CARTESIAN_POINT('',(-0.436089941787885,-14.1038894550247,-1.17293466853098));
#1464=CARTESIAN_POINT('',(-0.333994704286855,-11.9265482069784,-1.20634882194812));
#1465=CARTESIAN_POINT('',(-0.230349113505797,-9.36723779721563,-1.23000304996734));
#1466=CARTESIAN_POINT('',(-0.145840476295664,-6.84232181321397,-1.24215926836309));
#1467=CARTESIAN_POINT('',(-0.0880656226355125,-4.72248858198077,-1.24715822304106));
#1468=CARTESIAN_POINT('',(-0.0492919685143413,-3.00376175345884,-1.24915699329328));
#1469=CARTESIAN_POINT('',(-0.0211517607476895,-1.4945201479438,-1.24990674566957));
#1470=CARTESIAN_POINT('',(-0.00638149354315455,-0.495713868138854,-1.24999347746246));
#1471=CARTESIAN_POINT('',(-7.05952915741928E-8,-1.81783477160025E-9,-1.25));
#1472=CARTESIAN_POINT('',(-16.1530512353767,-69.5173273898424,-1.4626019600861E-15));
#1473=AXIS2_PLACEMENT_3D('',#1474,#1475,#1476);
#1474=CARTESIAN_POINT('',(-15.0000000000002,-70.0000000000003,-1.61568280997952E-15));
#1475=DIRECTION('',(0.386138088126131,0.92244098830131,0.));
#1476=DIRECTION('',(-0.92244098830131,0.386138088126131,1.22464679914735E-16));
#1477=CARTESIAN_POINT('',(13.8469487646233,-70.4826726101576,1.61568280997951E-15));
#1478=AXIS2_PLACEMENT_3D('',#1479,#1480,#1481);
#1479=CARTESIAN_POINT('',(15.0000000000002,-70.0000000000004,1.61568280997951E-15));
#1480=DIRECTION('',(-0.386138088126129,0.92244098830131,-6.16297582203915E-33));
#1481=DIRECTION('',(-0.92244098830131,-0.386138088126129,1.22464679914735E-16));
#1482=CARTESIAN_POINT('',(1.25000000000099,-26.5593765918679,1.46260196008609E-15));
#1483=CARTESIAN_POINT('',(1.2500000000005,-26.5593765918679,1.64050867345862E-15));
#1484=CARTESIAN_POINT('',(1.25000076325154,-26.55938591167,0.00673565088305117));
#1485=CARTESIAN_POINT('',(1.24989340028362,-26.5580647544693,0.0197120665495029));
#1486=CARTESIAN_POINT('',(1.24946910418376,-26.5528424498751,0.0377253340849196));
#1487=CARTESIAN_POINT('',(1.24888162427177,-26.5456101915278,0.0535386694899489));
#1488=CARTESIAN_POINT('',(1.24815037174318,-26.5366057030581,0.0684906676125473));
#1489=CARTESIAN_POINT('',(1.24718826908927,-26.5247549203015,0.0843487193099008));
#1490=CARTESIAN_POINT('',(1.24596985954061,-26.5097406448278,0.100788360213252));
#1491=CARTESIAN_POINT('',(1.24455834567259,-26.4923372274417,0.116842675466407));
#1492=CARTESIAN_POINT('',(1.24308435753439,-26.4741532042809,0.131550755919279));
#1493=CARTESIAN_POINT('',(1.241544677113,-26.4551478757621,0.145366403503181));
#1494=CARTESIAN_POINT('',(1.23985847957982,-26.434320751473,0.159104680870238));
#1495=CARTESIAN_POINT('',(1.23790246657932,-26.4101443117689,0.173707753444758));
#1496=CARTESIAN_POINT('',(1.23532452526025,-26.3782546380585,0.191322656800591));
#1497=CARTESIAN_POINT('',(1.23149442699539,-26.3308201902288,0.214874987260051));
#1498=CARTESIAN_POINT('',(1.22603590725637,-26.2630960948235,0.244342031360891));
#1499=CARTESIAN_POINT('',(1.21841228212176,-26.1682681196419,0.280151422383272));
#1500=CARTESIAN_POINT('',(1.20830783433468,-26.0421480764374,0.321220592092782));
#1501=CARTESIAN_POINT('',(1.19447486816555,-25.8686850129325,0.369744494380564));
#1502=CARTESIAN_POINT('',(1.17597857801134,-25.6352561632008,0.425327568739143));
#1503=CARTESIAN_POINT('',(1.15046419034593,-25.3104227159961,0.490752764501303));
#1504=CARTESIAN_POINT('',(1.11622972672088,-24.8692008152669,0.56490273092412));
#1505=CARTESIAN_POINT('',(1.07386066413323,-24.3137494999722,0.641904339064078));
#1506=CARTESIAN_POINT('',(1.02731209344816,-23.6905824327675,0.713736983064302));
#1507=CARTESIAN_POINT('',(0.974616480120798,-22.9691076804942,0.784375096719561));
#1508=CARTESIAN_POINT('',(0.913613476669106,-22.1109433796274,0.855048661567038));
#1509=CARTESIAN_POINT('',(0.841103142792295,-21.0538809213884,0.926653567208449));
#1510=CARTESIAN_POINT('',(0.764341218530985,-19.8844812665342,0.990720399896187));
#1511=CARTESIAN_POINT('',(0.686220384039453,-18.6342793387372,1.04613286544302));
#1512=CARTESIAN_POINT('',(0.607448385531541,-17.3048365732102,1.0937550229032));
#1513=CARTESIAN_POINT('',(0.5268676810299,-15.85761086839,1.13473317504091));
#1514=CARTESIAN_POINT('',(0.436089099757503,-14.103872337828,1.17293497818742));
#1515=CARTESIAN_POINT('',(0.33399398160741,-11.9265315753929,1.2063490164122));
#1516=CARTESIAN_POINT('',(0.23034855775904,-9.3672226487521,1.23000314856277));
#1517=CARTESIAN_POINT('',(0.145840094916394,-6.84230908613255,1.24215931001831));
#1518=CARTESIAN_POINT('',(0.0880653789422576,-4.7224787397098,1.24715823866916));
#1519=CARTESIAN_POINT('',(0.0492918397232435,-3.00375503883,1.24915699784161));
#1520=CARTESIAN_POINT('',(0.021151687124498,-1.49451669572902,1.24990674607973));
#1521=CARTESIAN_POINT('',(0.00638152153131058,-0.495712694498773,1.24999347752337));
#1522=CARTESIAN_POINT('',(1.81966195261197E-7,-1.81022006273679E-8,1.24999999999999));
#1523=CARTESIAN_POINT('',(1.2500000000005,-26.5593765918649,1.20987206740891E-15));
#1524=CARTESIAN_POINT('',(1.25000311605735,-26.5594148640902,-0.00733676644986181));
#1525=CARTESIAN_POINT('',(1.24986498846413,-26.5577151225229,-0.0222955673730646));
#1526=CARTESIAN_POINT('',(1.24926156489812,-26.5502879164897,-0.0448841359756619));
#1527=CARTESIAN_POINT('',(1.24823665911681,-26.5376691265294,-0.0677233215562917));
#1528=CARTESIAN_POINT('',(1.24671254756244,-26.5188948979303,-0.0917118220132404));
#1529=CARTESIAN_POINT('',(1.24481566898475,-26.4955123304477,-0.114423286276289));
#1530=CARTESIAN_POINT('',(1.24290393607715,-26.4719275969088,-0.133349204953265));
#1531=CARTESIAN_POINT('',(1.2412150900776,-26.4510777844438,-0.148123405870003));
#1532=CARTESIAN_POINT('',(1.23961724603671,-26.4313395009097,-0.160934550142107));
#1533=CARTESIAN_POINT('',(1.23753648795273,-26.405619775116,-0.176372864206507));
#1534=CARTESIAN_POINT('',(1.23471845605041,-26.3707539884457,-0.195265218724438));
#1535=CARTESIAN_POINT('',(1.23105460601765,-26.3253626729946,-0.217200250357889));
#1536=CARTESIAN_POINT('',(1.22670841964726,-26.2714341160092,-0.240598071567425));
#1537=CARTESIAN_POINT('',(1.22165618978441,-26.2086280409109,-0.265103505791014));
#1538=CARTESIAN_POINT('',(1.21588018500387,-26.1366671801779,-0.290453117477469));
#1539=CARTESIAN_POINT('',(1.20893998788622,-26.0499918281206,-0.318219963903792));
#1540=CARTESIAN_POINT('',(1.19947579447476,-25.9314363067952,-0.352553863732434));
#1541=CARTESIAN_POINT('',(1.18500268912494,-25.7493232507582,-0.399147174114139));
#1542=CARTESIAN_POINT('',(1.16411003541856,-25.4845579757005,-0.457056485588887));
#1543=CARTESIAN_POINT('',(1.13749176196457,-25.1437480195569,-0.519858861174011));
#1544=CARTESIAN_POINT('',(1.10812939593103,-24.7630834117599,-0.579600380683949));
#1545=CARTESIAN_POINT('',(1.07476411571839,-24.3247823990496,-0.639507940199158));
#1546=CARTESIAN_POINT('',(1.03573637459368,-23.8039964184651,-0.701272832746977));
#1547=CARTESIAN_POINT('',(0.98855780623083,-23.1615020695342,-0.766522950314713));
#1548=CARTESIAN_POINT('',(0.930514853095209,-22.3512036944278,-0.836483849117738));
#1549=CARTESIAN_POINT('',(0.861171006970347,-21.3509934159139,-0.908073464795642));
#1550=CARTESIAN_POINT('',(0.780645636020338,-20.1389577338012,-0.978262776466278));
#1551=CARTESIAN_POINT('',(0.688745696789269,-18.6822616356527,-1.04531321105094));
#1552=CARTESIAN_POINT('',(0.578698551668713,-16.817764166911,-1.11076049820939));
#1553=CARTESIAN_POINT('',(0.448249797897588,-14.3845587898894,-1.17009155217838));
#1554=CARTESIAN_POINT('',(0.313874554385024,-11.4941366728088,-1.21249317803685));
#1555=CARTESIAN_POINT('',(0.195684948905541,-8.42126620434617,-1.2360960225738));
#1556=CARTESIAN_POINT('',(0.109442034392638,-5.60120968104509,-1.24586261179698));
#1557=CARTESIAN_POINT('',(0.0533285475880296,-3.23664096550355,-1.24909627903783));
#1558=CARTESIAN_POINT('',(0.0202216213490574,-1.44119414244323,-1.24991883243243));
#1559=CARTESIAN_POINT('',(0.00547491172296665,-0.425282155765372,-1.24999434935371));
#1560=CARTESIAN_POINT('',(2.88056103341893E-7,-3.78607758477756E-8,-1.24999999999997));
#1561=CARTESIAN_POINT('',(-4.70000000000036,-76.4636794000715,1.15116799119851E-15));
#1562=AXIS2_PLACEMENT_3D('',#1563,#1564,#1565);
#1563=CARTESIAN_POINT('',(-3.56582027787719E-13,-76.4636794000715,0.));
#1564=DIRECTION('',(-4.66341707050244E-15,-1.,0.));
#1565=DIRECTION('',(-1.,4.66341707050244E-15,1.22464679914735E-16));
#1566=CARTESIAN_POINT('',(-21.266163085647,-72.797355927314,-4.64514818781008E-16));
#1567=AXIS2_PLACEMENT_3D('',#1568,#1569,#1570);
#1568=CARTESIAN_POINT('',(-16.9306904406309,-74.6122049415068,-1.61568280997952E-15));
#1569=DIRECTION('',(-0.386138088126131,-0.92244098830131,0.));
#1570=DIRECTION('',(-0.92244098830131,0.386138088126131,1.22464679914735E-16));
#1571=CARTESIAN_POINT('',(12.5952177956147,-76.4270539556997,2.76685080117802E-15));
#1572=AXIS2_PLACEMENT_3D('',#1573,#1574,#1575);
#1573=CARTESIAN_POINT('',(16.9306904406309,-74.6122049415069,1.61568280997951E-15));
#1574=DIRECTION('',(0.386138088126129,-0.92244098830131,6.16297582203915E-33));
#1575=DIRECTION('',(-0.92244098830131,-0.386138088126129,1.22464679914735E-16));
#1576=CARTESIAN_POINT('',(-16.937126075433,-69.1891100149354,-1.10133115433763E-15));
#1577=AXIS2_PLACEMENT_3D('',#1578,#1579,#1580);
#1578=CARTESIAN_POINT('',(-15.0000000000002,-70.0000000000003,-1.61568280997952E-15));
#1579=DIRECTION('',(-0.386138088126131,-0.92244098830131,0.));
#1580=DIRECTION('',(-0.92244098830131,0.386138088126131,1.22464679914735E-16));
#1581=CARTESIAN_POINT('',(-1.25,-71.4636794000715,0.));
#1582=AXIS2_PLACEMENT_3D('',#1583,#1584,#1585);
#1583=CARTESIAN_POINT('',(0.,-71.4636794000715,0.));
#1584=DIRECTION('',(-4.66341707050244E-15,-1.,0.));
#1585=DIRECTION('',(-1.,4.66341707050244E-15,1.22464679914735E-16));
#1586=CARTESIAN_POINT('',(13.0628739245675,-70.8108899850653,2.1300344656214E-15));
#1587=AXIS2_PLACEMENT_3D('',#1588,#1589,#1590);
#1588=CARTESIAN_POINT('',(15.0000000000002,-70.0000000000004,1.61568280997951E-15));
#1589=DIRECTION('',(0.386138088126129,-0.92244098830131,6.16297582203915E-33));
#1590=DIRECTION('',(-0.92244098830131,-0.386138088126129,1.22464679914735E-16));
#1591=CARTESIAN_POINT('',(-2.10000000000036,-76.4636794000715,5.14351655641888E-16));
#1592=AXIS2_PLACEMENT_3D('',#1593,#1594,#1595);
#1593=CARTESIAN_POINT('',(-3.56582027787719E-13,-76.4636794000715,0.));
#1594=DIRECTION('',(-4.66341707050244E-15,-1.,0.));
#1595=DIRECTION('',(-1.,4.66341707050244E-15,1.22464679914735E-16));
#1596=CARTESIAN_POINT('',(-18.8678165160636,-73.801314956442,-1.10133115433763E-15));
#1597=AXIS2_PLACEMENT_3D('',#1598,#1599,#1600);
#1598=CARTESIAN_POINT('',(-16.9306904406309,-74.6122049415068,-1.61568280997952E-15));
#1599=DIRECTION('',(-0.386138088126131,-0.92244098830131,0.));
#1600=DIRECTION('',(-0.92244098830131,0.386138088126131,1.22464679914735E-16));
#1601=CARTESIAN_POINT('',(14.9935643651981,-75.4230949265718,2.1300344656214E-15));
#1602=AXIS2_PLACEMENT_3D('',#1603,#1604,#1605);
#1603=CARTESIAN_POINT('',(16.9306904406309,-74.6122049415069,1.61568280997951E-15));
#1604=DIRECTION('',(0.386138088126129,-0.92244098830131,6.16297582203915E-33));
#1605=DIRECTION('',(-0.92244098830131,-0.386138088126129,1.22464679914735E-16));
#1606=CARTESIAN_POINT('',(-2.10000000000033,-71.4636794000715,5.14351655641888E-16));
#1607=AXIS2_PLACEMENT_3D('',#1608,#1609,#1610);
#1608=CARTESIAN_POINT('',(-3.33264942435207E-13,-71.4636794000715,0.));
#1609=DIRECTION('',(-4.66341707050244E-15,-1.,0.));
#1610=DIRECTION('',(-1.,4.66341707050244E-15,1.22464679914735E-16));
ENDSEC;
END-ISO-10303-21;
